<svg width="64" height="52" viewBox="0 0 64 52" fill="none" xmlns="http://www.w3.org/2000/svg">
<path d="M36.1667 52V33.393C36.1667 25.0863 38.4444 17.8317 43 11.6294C47.5556 5.31629 54.5556 1.43982 64 0V12.1278C58.5556 12.7923 54.9444 14.5644 53.1667 17.4441C51.3889 20.3237 50.5 24.1448 50.5 28.9073L40.6667 26.9137H63.6667V52H36.1667ZM0 52V33.393C0 25.0863 2.27778 17.8317 6.83333 11.6294C11.3889 5.31629 18.3889 1.43982 27.8333 0V12.1278C22.3889 12.7923 18.7778 14.5644 17 17.4441C15.2222 20.3237 14.3333 24.1448 14.3333 28.9073L4.5 26.9137H27.5V52H0Z" fill="#F7F7F7"/>
</svg>
