<svg width="207" height="76" viewBox="0 0 207 76" fill="none" xmlns="http://www.w3.org/2000/svg">
<path d="M19.6023 56.8098C19.3932 57.9576 19.127 59.0941 18.8048 60.2151C18.4423 61.289 18.1743 62.4326 17.4367 63.3639C16.7653 63.2023 16.1191 63.2023 15.4981 62.8729C15.5391 62.214 15.5454 61.5709 15.6242 60.9342C15.7282 60.0758 15.848 59.2141 16.0277 58.3652C16.2073 57.4936 16.4315 56.6319 16.6991 55.7835C17.1909 54.2313 17.6889 52.6791 18.2752 51.1586C18.7417 49.92 19.2934 48.7131 19.8513 47.5157C20.4092 46.3183 21.0019 45.2191 21.6102 44.0882C22.0936 43.1864 22.601 42.2984 23.1327 41.4241C23.5898 40.6797 24.0941 39.9606 24.5859 39.2352C25.1438 38.4116 25.6923 37.5816 26.2786 36.7802C26.8649 35.9787 27.4481 35.2628 28.047 34.5152C28.4851 33.9735 28.9233 33.4319 29.3898 32.9314C30.3796 31.848 31.3725 30.7678 32.3938 29.7129C33.0589 29.0287 33.7776 28.392 34.4616 27.7268C34.5952 27.5859 34.6964 27.4172 34.758 27.2326C34.5874 27.2931 34.4227 27.3695 34.2662 27.4607C33.4466 28.0404 32.6208 28.6106 31.8233 29.2219C30.3544 30.3592 28.8696 31.4774 27.4575 32.6843C26.225 33.7423 25.0429 34.8669 23.9207 36.0389C22.9751 37.0399 22.0988 38.136 21.2351 39.2067C20.5353 40.0873 19.8545 40.9869 19.2461 41.9309C18.6476 42.8557 18.1095 43.8186 17.6353 44.8136C16.9797 46.1979 16.3744 47.6107 15.8197 49.0425C15.4193 50.0942 15.1546 51.1966 14.8236 52.2736C14.7678 52.3941 14.7002 52.5087 14.6218 52.6157C14.5066 52.499 14.4011 52.3729 14.3066 52.2388C13.2894 50.3369 12.5596 48.2935 12.1411 46.1757C11.7944 44.4398 11.8259 42.6753 11.8259 40.9077C11.8817 39.4619 12.062 38.0237 12.3649 36.6091C12.4847 35.9756 12.7558 35.3864 12.9386 34.7687C13.6252 32.6125 14.602 30.5609 15.8417 28.6707C16.7267 27.2891 17.7298 25.9875 18.8395 24.7808C20.3669 23.1076 22.0388 21.5737 23.8356 20.197C24.6741 19.5635 25.5252 18.9299 26.411 18.3439C27.7507 17.4759 29.1092 16.646 30.4836 15.8351C32.6011 14.6295 34.7956 13.566 37.0528 12.6515C38.5238 12.0306 40.0116 11.4604 41.5162 10.9409C42.9851 10.4372 44.4855 10.0191 45.9797 9.59777C46.8717 9.34435 47.7827 9.16062 48.6843 8.94205C49.3431 8.78049 49.9987 8.6031 50.6607 8.44788C50.8047 8.39864 50.9588 8.38734 51.1083 8.41507C51.2579 8.4428 51.3979 8.50863 51.5149 8.60627C51.5554 8.86961 51.5806 9.13509 51.5906 9.40137C51.5748 11.6536 51.5906 13.9091 51.5086 16.1613C51.4519 17.6438 51.2722 19.1263 51.0956 20.5962C50.9002 22.2529 50.6607 23.9065 50.4148 25.5569C50.3328 26.0212 50.2276 26.4811 50.0996 26.9348C49.8348 28.0182 49.6078 29.1111 49.2989 30.1818C48.7968 31.978 48.1851 33.7416 47.4675 35.4624C46.656 37.4399 45.6839 39.347 44.5612 41.1643C43.852 42.2762 43.0671 43.3437 42.2539 44.3796C41.6163 45.1798 40.9321 45.9414 40.2049 46.6604C39.1061 47.7865 37.8956 48.797 36.5925 49.6761C34.9288 50.7691 33.1701 51.7085 31.3378 52.4827C29.5568 53.2461 27.7444 53.9335 25.9319 54.6114C24.7088 55.0707 23.4574 55.4604 22.2218 55.8785C21.3517 56.1889 20.4912 56.493 19.6023 56.8098Z" fill="#3BA433"/>
<path d="M124.475 35.4592C124.746 33.1436 124.538 30.9198 123.303 28.8767C123.003 28.3227 122.593 27.8365 122.098 27.448C121.668 27.1106 121.209 26.8108 120.727 26.5515C120.169 26.2705 119.58 26.0578 118.972 25.918C117.648 25.6125 116.266 25.6849 114.981 26.1271C114.304 26.3278 113.679 26.6724 113.146 27.1376C113.022 27.2195 112.888 27.2835 112.746 27.3276C112.689 27.0964 112.658 26.957 112.623 26.8208C112.58 26.5381 112.429 26.2833 112.203 26.1101C111.977 25.9369 111.692 25.859 111.409 25.8926C110.779 25.9433 110.123 25.8926 109.48 25.8926C109.263 25.8926 109.045 25.9433 108.765 25.975C108.715 26.2068 108.683 26.4418 108.667 26.6782C108.667 29.6348 108.667 32.5914 108.667 35.5479C108.667 39.3724 108.667 43.197 108.667 47.0215C108.682 47.3048 108.711 47.5871 108.755 47.8673H112.926C112.995 47.6933 113.043 47.5114 113.068 47.3256C113.068 45.257 113.068 43.1854 113.068 41.1168C113.08 40.9961 113.101 40.8765 113.131 40.7589C113.357 40.9046 113.528 41.0218 113.704 41.1295C114.695 41.7096 115.806 42.0511 116.95 42.1269C118.095 42.2028 119.241 42.011 120.299 41.5666C121.833 40.9208 123.061 39.7059 123.728 38.174C124.124 37.3165 124.376 36.3993 124.475 35.4592ZM119.807 36.4666C119.788 36.5109 119.772 36.5521 119.756 36.5964L119.419 37.1888C119.359 37.2237 119.28 37.2427 119.243 37.2965C118.905 37.7909 118.419 38.1639 117.856 38.3609C116.959 38.6318 116.003 38.6318 115.107 38.3609C114.312 38.1022 113.614 37.6087 113.102 36.9449C113.102 36.7992 113.102 36.6281 113.102 36.4317C113.102 34.7877 113.14 33.1436 113.083 31.4996C113.054 31.1872 113.121 30.8733 113.276 30.6007C113.43 30.328 113.665 30.1099 113.947 29.9759C114.215 29.8238 114.467 29.6591 114.729 29.4785L114.864 29.4057C115.051 29.4016 115.238 29.3847 115.422 29.355C116.385 29.1048 117.405 29.2058 118.3 29.6401C118.37 29.6749 118.467 29.6401 118.552 29.6401L118.77 29.7921L118.949 29.9949C118.949 30.0234 118.949 30.0361 118.99 30.0329L119.192 30.2166L119.331 30.4225L119.514 30.6696L119.57 30.7393L119.649 30.8787L119.744 31.0656C119.766 31.1289 119.791 31.1954 119.813 31.262C119.835 31.3285 119.892 31.395 119.93 31.4615C119.921 31.532 119.921 31.6033 119.93 31.6738C120.278 33.0022 120.3 34.3956 119.996 35.7348C119.98 35.86 119.98 35.9866 119.996 36.1118L119.807 36.4666Z" fill="white"/>
<path d="M74.8977 33.6695C74.5652 32.4323 73.7642 31.3749 72.6661 30.7235C71.5452 30.1014 70.3505 29.6246 69.1104 29.3043C68.1469 29.0191 67.1998 28.6807 66.2734 28.2906C65.8973 28.1455 65.5655 27.9039 65.3111 27.5899C65.0567 27.2759 64.8885 26.9004 64.8234 26.5008C64.7796 26.1765 64.8004 25.8467 64.8844 25.5304C64.9684 25.2142 65.114 24.9178 65.3128 24.6586C65.5116 24.3993 65.7596 24.1822 66.0424 24.02C66.3253 23.8577 66.6374 23.7534 66.9606 23.7132C68.324 23.481 69.7247 23.6277 71.0112 24.1377C71.8339 24.4545 72.666 24.7713 73.5014 25.088C73.618 25.1292 73.7693 25.0659 73.9017 25.0532C73.9017 23.8843 73.9017 22.8041 73.9017 21.7239C73.8942 21.6238 73.8643 21.5268 73.814 21.4401C73.7638 21.3534 73.6946 21.2793 73.6117 21.2234C72.9816 20.9331 72.3329 20.6854 71.6699 20.4821C70.3646 20.1286 69.0148 19.9696 67.6635 20.0101C66.4041 19.9814 65.155 20.2448 64.0133 20.7799C62.9501 21.2634 62.0451 22.04 61.4033 23.0195C60.9719 23.7243 60.6768 24.5045 60.5333 25.3193C60.2558 26.6572 60.4276 28.0497 61.0219 29.279C61.5305 30.361 62.4037 31.2273 63.4869 31.7244C64.7274 32.2439 65.9955 32.6944 67.2853 33.0739C68.1521 33.3622 69.0442 33.5681 69.7912 34.151C70.1869 34.4561 70.4735 34.8818 70.6082 35.3643C70.7429 35.8469 70.7184 36.3603 70.5383 36.8277C70.35 37.2724 70.0454 37.6576 69.6569 37.9426C69.2685 38.2275 68.8107 38.4016 68.3318 38.4464C67.3279 38.579 66.3104 38.5704 65.3088 38.4211C64.046 38.2679 62.8181 37.9005 61.6775 37.3345C61.3781 37.2056 61.0694 37.0997 60.754 37.0178C60.754 38.1962 60.754 39.2352 60.754 40.3027C60.746 40.4287 60.7756 40.5542 60.8391 40.6631C60.9025 40.772 60.9969 40.8594 61.1101 40.9141C61.5592 41.1257 62.0202 41.3109 62.4908 41.4684C63.4145 41.7608 64.3648 41.9603 65.3278 42.064C67.5028 42.3206 69.6084 42.1622 71.6321 41.2309C72.6114 40.8033 73.4545 40.1128 74.0688 39.2352C74.6217 38.4331 74.9839 37.5142 75.1276 36.5492C75.2714 35.5843 75.1927 34.599 74.8977 33.6695Z" fill="white"/>
<path d="M157.743 33.6695C157.548 33.0723 157.268 32.5068 156.911 31.9906C155.928 30.6854 154.487 30.1184 153.021 29.6148C152.117 29.298 151.184 29.0857 150.285 28.7721C149.77 28.5845 149.276 28.3412 148.813 28.0467C148.55 27.8969 148.323 27.6887 148.152 27.4378C147.98 27.1869 147.868 26.9001 147.823 26.5991C147.766 26.2807 147.772 25.954 147.841 25.6378C147.909 25.3217 148.04 25.0225 148.225 24.7574C148.409 24.4923 148.644 24.2666 148.916 24.0933C149.188 23.9201 149.492 23.8027 149.809 23.7481C151.556 23.3806 153.211 23.7924 154.834 24.4102C155.404 24.6256 155.966 24.8758 156.646 25.1577C156.712 25.0212 156.759 24.8762 156.785 24.7269C156.785 23.7766 156.785 22.8579 156.785 21.9203C156.785 21.3881 156.722 21.3153 156.221 21.1157C155.004 20.6342 153.775 20.1337 152.46 20.0672C150.569 19.969 148.678 19.8011 146.928 20.7609C146.422 21.0042 145.94 21.2948 145.488 21.6289C144.342 22.5499 143.603 23.8868 143.429 25.351C143.196 27.071 143.369 28.6866 144.479 30.1248C145.207 31.0182 146.151 31.7087 147.221 32.1299C147.72 32.3246 148.229 32.4907 148.747 32.6273C149.308 32.7983 149.872 32.9694 150.433 33.1341C151.303 33.3875 152.167 33.6473 152.867 34.2745C153.208 34.6228 153.436 35.0672 153.52 35.5488C153.604 36.0303 153.54 36.5261 153.337 36.9702C153.104 37.4177 152.755 37.7929 152.326 38.0553C151.897 38.3177 151.405 38.4573 150.903 38.4591C149.728 38.5639 148.544 38.4956 147.388 38.2563C146.281 38.0025 145.203 37.6353 144.17 37.1603C144.045 37.1108 143.916 37.0695 143.785 37.0368C143.757 37.1674 143.736 37.2996 143.722 37.4327C143.722 38.4211 143.722 39.4126 143.722 40.4009C143.74 40.547 143.779 40.6899 143.836 40.8254C144.289 41.0544 144.754 41.2585 145.229 41.4368C146.374 41.8082 147.562 42.0318 148.763 42.102C150.202 42.2143 151.649 42.0869 153.047 41.725C154.207 41.4036 155.276 40.8121 156.167 39.9986C157.18 39.0437 157.809 37.7487 157.936 36.3589C158.097 35.4604 158.031 34.5356 157.743 33.6695Z" fill="white"/>
<path d="M140.554 28.9527C140.26 28.2882 139.826 27.6958 139.282 27.2162C138.737 26.7366 138.096 26.3813 137.402 26.1746C135.029 25.4808 132.674 25.5252 130.423 26.7258C129.492 27.2074 128.692 27.9111 128.094 28.7753C127.419 29.7305 126.961 30.8225 126.751 31.9747C126.436 33.8944 126.483 35.776 127.224 37.5911C127.901 39.2934 129.218 40.6592 130.89 41.3924C132.377 42.0398 134.007 42.2886 135.618 42.1146C136.526 42.0418 137.421 41.8232 138.326 41.6933C139.162 41.5244 139.972 41.2475 140.737 40.8697C140.945 40.195 140.904 37.8667 140.677 37.5785C140.617 37.5872 140.557 37.5999 140.498 37.6165C139.424 38.0225 138.313 38.3238 137.182 38.5161C135.999 38.7699 134.775 38.7504 133.601 38.4591C132.916 38.2704 132.298 37.8903 131.82 37.363C131.189 36.6725 131.12 35.7792 130.814 34.9556C130.78 34.8605 130.871 34.718 130.906 34.5818H132.829L140.857 34.6039C141.172 34.6039 141.333 34.4551 141.343 34.0749C141.343 33.6409 141.358 33.2038 141.343 32.7698C141.302 31.452 141.147 30.1849 140.554 28.9527ZM137.305 32.1204H130.874C131.098 31.0054 131.394 30.1057 132.283 29.4373C133.172 28.769 134.152 28.7689 135.12 28.9083C135.644 28.9733 136.136 29.1973 136.531 29.5505C136.925 29.9036 137.202 30.3692 137.327 30.885C137.476 31.2901 137.468 31.7367 137.305 32.1363V32.1204Z" fill="white"/>
<path d="M83.6356 42.0956C84.2919 42.2026 84.957 42.245 85.6215 42.2224C86.3654 42.1939 87.103 42.0513 87.7523 41.969L89.7886 41.1485C90.1039 40.5149 90.0724 37.9332 89.754 37.6355C88.9484 38.046 88.0919 38.3464 87.207 38.5288C86.0202 38.7527 84.7936 38.6056 83.6924 38.1075C83.1659 37.8387 82.7199 37.4342 82.4 36.9354C81.8483 36.2005 81.738 35.3199 81.5835 34.4677C81.4544 33.5135 81.6103 32.5421 82.0312 31.677C82.1603 31.3922 82.3199 31.1224 82.5072 30.8723C82.9147 30.3125 83.4803 29.8887 84.1305 29.6559C85.0762 29.2948 86.0912 29.3392 87.0841 29.4152C87.5361 29.4691 87.9804 29.5754 88.408 29.732C88.7516 29.846 89.0668 30.0487 89.4041 30.1818C89.5686 30.2331 89.7374 30.2691 89.9085 30.2895C89.9085 30.0931 89.9337 29.9727 89.9337 29.8333C89.9337 28.978 89.9337 28.1196 89.9337 27.2643C89.9141 27.0226 89.8793 26.7825 89.8297 26.5452C89.0921 26.333 88.3828 26.07 87.6484 25.9307C85.8202 25.5457 83.9213 25.6829 82.1667 26.3266C81.1252 26.7039 80.1768 27.3025 79.3865 28.0816C78.2741 29.1881 77.5647 30.6387 77.3723 32.1996C77.243 33.1309 77.3313 34.1003 77.2966 35.0506C77.3163 35.8068 77.4547 36.5551 77.7064 37.268C78.0059 38.2049 78.4977 39.0683 79.15 39.8022C79.8699 40.6389 80.7897 41.2777 81.8231 41.6585C82.4087 41.8732 83.0168 42.0198 83.6356 42.0956Z" fill="white"/>
<path d="M206.993 38.0124C206.976 37.8709 206.94 37.7324 206.886 37.6006C206.824 37.6013 206.763 37.6087 206.703 37.6228C205.862 38.1346 204.921 38.4587 203.945 38.5731C202.34 38.7568 200.818 38.5731 199.67 37.2775C199.324 36.9001 199.064 36.4515 198.908 35.9629C198.657 35.0078 198.575 34.0162 198.665 33.0327C198.74 32.0627 199.167 31.1541 199.864 30.4787C200.561 29.8033 201.48 29.4081 202.448 29.3677C203.31 29.2955 204.178 29.3693 205.017 29.5862C205.547 29.7533 206.063 29.9652 206.558 30.2198C206.66 30.262 206.766 30.2969 206.873 30.3243C206.926 30.1944 206.962 30.0581 206.98 29.9188C206.98 28.9685 206.999 28.0182 206.965 27.0679C206.955 26.9558 206.922 26.847 206.868 26.7487C206.814 26.6503 206.739 26.5648 206.649 26.4977C206.307 26.3146 205.939 26.1823 205.559 26.1049C204.947 25.9647 204.328 25.859 203.705 25.7881C202.596 25.6527 201.472 25.7236 200.389 25.9972C199.699 26.1829 199.025 26.4255 198.375 26.7226C197.622 27.0651 196.947 27.5601 196.392 28.1766C195.74 28.902 195.131 29.6591 194.882 30.6284C194.611 31.4616 194.408 32.3155 194.274 33.1816C194.123 34.6382 194.325 36.1099 194.863 37.4707C195.292 38.6844 196.046 39.7554 197.041 40.5656C197.389 40.8404 197.765 41.0762 198.164 41.2689C198.728 41.5635 199.322 41.7961 199.935 41.9626C200.996 42.2175 202.092 42.285 203.176 42.1622C204.37 42.007 205.556 41.8454 206.621 41.2119C206.733 41.1605 206.828 41.0774 206.893 40.9727C206.959 40.868 206.992 40.7463 206.99 40.6227C206.999 39.7515 207.006 38.8836 206.993 38.0124Z" fill="white"/>
<path d="M37.3396 10.5227L41.0497 9.25565C41.0819 9.1265 41.1051 8.99525 41.119 8.86285C41.119 8.12477 41.119 7.38668 41.119 6.64543C41.119 5.92069 40.9541 5.20555 40.6368 4.55473C40.2523 3.72755 39.7465 2.963 39.1363 2.28661C38.4954 1.6285 37.7496 1.08249 36.9298 0.671073C36.0068 0.20206 34.9817 -0.0277129 33.9478 0.00266453C27.6624 0.0248387 21.3738 0.00266453 15.0852 0.00266453C12.1316 0.00266453 9.17805 0.00267922 6.22446 0.0375244C5.67833 0.0643255 5.1428 0.198871 4.64837 0.433492C3.58977 0.876209 2.63911 1.54407 1.86182 2.39116C1.29242 3.04642 0.824853 3.78438 0.47489 4.58006C0.131239 5.40639 -0.0269604 6.29868 0.0115289 7.19345C0.0115289 13.1509 0.0115289 19.1105 0.0115289 25.0722C0.0115289 39.5783 0.0115289 54.0824 0.0115289 68.5843C-0.0404569 69.4919 0.0837057 70.4011 0.377154 71.2611C0.661098 72.0492 1.08155 72.7806 1.61909 73.4215C2.25298 74.1698 3.03156 74.7808 3.90758 75.2176C4.15345 75.3348 4.43083 75.3855 4.683 75.49C5.39559 75.8046 6.16202 75.9777 6.94001 76C15.7882 76 24.6363 75.9778 33.4845 76C34.6697 76 35.7319 75.6199 36.8321 75.3348C37.098 75.2698 37.3494 75.1548 37.5728 74.9958C38.6068 74.2007 39.6344 73.412 40.2711 72.2114C40.7937 71.3279 41.0884 70.3272 41.1285 69.3002C41.1285 63.2224 41.1285 57.1445 41.1285 51.0667V49.4828C40.8637 49.166 40.7093 49.3751 40.517 49.5303C39.7069 50.1829 38.922 50.8735 38.0615 51.4532C37.431 51.8776 37.1 52.3084 37.1158 53.1289C37.1631 57.323 37.141 61.5171 37.141 65.708C37.141 66.9075 37.1326 68.1081 37.1158 69.3097C37.1254 69.4798 37.0929 69.6496 37.0212 69.8039C36.801 70.185 36.5545 70.5502 36.2836 70.8968C36.1087 71.1151 35.8949 71.2988 35.6531 71.4384C34.9962 71.7716 34.2631 71.9235 33.5286 71.8788C28.6469 71.8788 23.7631 71.8788 18.8773 71.8788C15.309 71.8788 11.7376 71.9041 8.15986 71.8629C7.19214 71.8629 6.17718 71.9959 5.2788 71.3466C4.64837 70.8936 4.18501 70.3583 4.10305 69.598C4.02316 68.7378 3.99052 67.8738 4.00531 67.0099C4.00531 47.1102 4.00531 27.2125 4.00531 7.31699C3.98417 6.91048 4.04626 6.50393 4.18778 6.12251C4.32929 5.7411 4.54717 5.39294 4.82799 5.09957C5.27875 4.64975 5.77367 4.25695 6.43878 4.22844C7.03455 4.2031 7.63344 4.20627 8.2292 4.22844C10.0007 4.26012 11.7723 4.30448 13.5438 4.33615C13.68 4.32607 13.8164 4.35276 13.9389 4.41347C14.0614 4.47418 14.1655 4.56669 14.2404 4.68143C14.2437 5.16857 14.4371 5.63497 14.779 5.98033C15.1209 6.32569 15.584 6.52243 16.0687 6.52823C19.1536 6.52823 22.2396 6.52823 25.3266 6.52823C25.5973 6.52106 25.8623 6.44825 26.099 6.31599C26.397 6.16418 26.6504 5.93667 26.834 5.65605C27.0175 5.37544 27.1249 5.05146 27.1454 4.71627C27.1671 4.5873 27.1988 4.46022 27.24 4.33615C27.4228 4.33615 27.5899 4.33615 27.757 4.33615C29.724 4.27597 31.6909 4.23161 33.6547 4.14925C34.7863 4.1049 35.7319 4.41852 36.4349 5.34666C36.5231 5.4607 36.6272 5.5589 36.7501 5.68245C36.9087 5.95405 37.0236 6.2491 37.0906 6.55673C37.1473 7.4627 37.1252 8.37185 37.1441 9.27783C37.1378 9.67379 37.0464 10.1046 37.3396 10.5227Z" fill="white"/>
<path d="M78.7119 53.3095C78.4219 53.2841 78.1287 53.3095 77.8009 53.3095C77.7545 53.4762 77.7239 53.6469 77.7096 53.8195C77.7096 54.8205 77.7347 55.8215 77.7442 56.8225C77.7273 56.9822 77.6967 57.1401 77.6528 57.2945C77.5375 57.2163 77.4317 57.1248 77.3375 57.022C76.6189 55.9925 75.8939 54.9662 75.191 53.924C74.7812 53.3126 74.4344 53.1669 73.6558 53.3855C73.6239 53.5144 73.6028 53.6458 73.5928 53.7783C73.5928 55.5586 73.5928 57.3388 73.5928 59.1191C73.6053 59.2784 73.636 59.4357 73.6842 59.5879H74.8726C74.8726 59.3884 74.9072 59.2363 74.9072 59.0843C74.9072 58.1339 74.9072 57.1583 74.9072 56.1953C74.9254 56.0718 74.9571 55.9506 75.0018 55.8341H75.1122L76.2343 57.3737C76.7166 58.0421 77.18 58.7231 77.6812 59.3725C77.823 59.5142 78.0044 59.6092 78.2012 59.6449C78.416 59.6678 78.6327 59.6678 78.8475 59.6449C78.9181 59.4976 78.9669 59.3408 78.9924 59.1793C78.9924 57.361 78.9924 55.5427 78.9924 53.7213C79.0019 53.49 78.9231 53.3095 78.7119 53.3095Z" fill="white"/>
<path d="M191.55 32.6368C191.577 31.7574 191.524 30.8774 191.393 30.0076C191.262 29.1418 190.939 28.3167 190.447 27.5937C190.097 27.0719 189.638 26.6339 189.101 26.3109C188.563 25.9879 187.962 25.7878 187.339 25.7248C186.346 25.599 185.337 25.6843 184.379 25.9752C183.421 26.266 182.534 26.7559 181.776 27.4132C181.677 27.4806 181.572 27.5359 181.46 27.5779C181.337 27.1724 181.224 26.8303 181.145 26.4787C181.112 26.297 181.015 26.1333 180.872 26.0171C180.73 25.9008 180.55 25.8398 180.367 25.8451C179.512 25.8451 178.661 25.8451 177.807 25.8451C177.624 25.8733 177.446 25.9255 177.277 26.0003C177.277 26.2664 177.249 26.4628 177.249 26.6592C177.249 31.4721 177.249 36.2839 177.249 41.0947C177.249 41.7282 177.438 41.9531 178.081 41.969C178.949 41.9901 179.815 41.9901 180.679 41.969C181.249 41.9531 181.391 41.7852 181.391 41.215C181.391 37.8826 181.391 34.548 181.391 31.2113C181.405 30.9764 181.434 30.7426 181.476 30.5112C181.799 30.2407 182.139 29.991 182.494 29.7636C183.398 29.2972 184.423 29.1235 185.429 29.2663C185.74 29.2743 186.044 29.3686 186.305 29.5387C186.642 29.8217 186.91 30.1776 187.09 30.5798C187.271 30.9819 187.358 31.4198 187.345 31.8607C187.345 34.8003 187.351 37.74 187.361 40.6797C187.361 40.8254 187.361 40.9711 187.361 41.1137C187.424 41.7916 187.632 41.9816 188.307 41.9848C189.07 41.9848 189.829 41.9848 190.592 41.9848C190.761 41.9761 190.93 41.9581 191.097 41.9309C191.169 41.9276 191.24 41.9092 191.305 41.8768C191.37 41.8444 191.428 41.7987 191.474 41.7427C191.521 41.6867 191.555 41.6215 191.576 41.5514C191.596 41.4813 191.601 41.4077 191.591 41.3354C191.591 40.4548 191.591 39.5741 191.591 38.6935L191.55 32.6368Z" fill="white"/>
<path d="M197.584 53.3095C197.283 53.2739 196.98 53.2675 196.679 53.2905C196.63 53.4989 196.596 53.7107 196.578 53.924C196.578 54.8458 196.607 55.7676 196.613 56.6894C196.596 56.8846 196.565 57.0783 196.521 57.2691C196.402 57.1789 196.292 57.0782 196.19 56.9682C195.456 55.9355 194.728 54.8965 193.984 53.8575C193.543 53.2239 193.322 53.1511 192.515 53.338C192.479 53.4652 192.454 53.5957 192.443 53.7276C192.443 55.5332 192.443 57.3388 192.443 59.1444C192.46 59.2981 192.491 59.4498 192.537 59.5974H193.653C193.7 59.3815 193.732 59.1623 193.747 58.9417C193.747 57.9914 193.729 57.0411 193.722 56.0908C193.734 55.964 193.758 55.8388 193.795 55.7169L193.915 55.6916L194.302 56.2428C194.914 57.1044 195.535 57.9597 196.131 58.8308C196.666 59.6133 196.994 59.7812 197.77 59.5341C197.809 59.4202 197.837 59.3023 197.852 59.1825C197.852 57.3483 197.852 55.5174 197.852 53.6833C197.84 53.604 197.809 53.5288 197.763 53.4638C197.716 53.3988 197.655 53.3459 197.584 53.3095Z" fill="white"/>
<path d="M120.384 53.3095C120.346 53.4645 120.321 53.6223 120.308 53.7814C120.308 54.849 120.343 55.9133 120.352 56.9777C120.331 57.0887 120.293 57.1956 120.239 57.2945C120.109 57.1896 119.987 57.0741 119.876 56.9492C119.665 56.6673 119.476 56.3695 119.271 56.0844C118.801 55.4223 118.31 54.773 117.856 54.1014C117.266 53.2271 117.162 53.1511 116.28 53.3633C116.237 53.4897 116.209 53.6204 116.194 53.7529C116.194 55.5438 116.194 57.3388 116.194 59.1381C116.21 59.3144 116.24 59.4892 116.283 59.6608C116.693 59.5879 117.08 59.7748 117.414 59.5087V55.6663C118.045 55.945 118.152 56.5564 118.511 56.9334C118.872 57.3623 119.204 57.8152 119.504 58.2891L120.45 59.5943H121.493C121.515 59.4042 121.547 59.2426 121.55 59.0779C121.55 57.3927 121.582 55.7074 121.582 54.0095C121.562 53.765 121.523 53.5225 121.465 53.2841L120.384 53.3095Z" fill="white"/>
<path d="M128.929 56.7338C128.907 56.5424 128.872 56.3529 128.822 56.1668C128.069 56.1668 127.413 56.1668 126.757 56.1668C126.291 56.1668 126.193 56.2776 126.218 56.8447C126.24 57.2438 126.386 57.3452 126.814 57.2945C127.129 57.2596 127.445 57.1678 127.7 57.437C127.725 57.6271 127.747 57.8077 127.782 58.0706C127.634 58.2389 127.459 58.3813 127.265 58.4919C126.969 58.5986 126.652 58.6372 126.339 58.6049C126.026 58.5725 125.724 58.4701 125.456 58.305C124.646 57.852 124.415 57.1107 124.459 56.2364C124.497 55.4572 125.219 54.5861 125.654 54.5037C126.379 54.3675 127.139 54.2598 127.795 54.7856C127.895 54.8522 128.001 54.9115 128.11 54.963C128.209 54.9146 128.303 54.8584 128.393 54.7951C128.888 54.377 128.835 53.9303 128.261 53.6769C127.946 53.5407 127.631 53.4077 127.315 53.2968C126.168 52.9008 125.137 53.2556 124.283 53.9778C123.306 54.8078 123.022 55.9577 123.249 57.228C123.305 57.6185 123.442 57.9929 123.651 58.3269C123.86 58.6608 124.136 58.9469 124.463 59.1666C125.073 59.5664 125.787 59.7769 126.516 59.7719C127.245 59.7668 127.956 59.5464 128.56 59.1381C128.693 59.0649 128.802 58.9542 128.872 58.8196C128.943 58.6849 128.973 58.5324 128.958 58.381C128.917 57.8393 128.945 57.285 128.929 56.7338Z" fill="white"/>
<path d="M69.5391 64.5993C67.4523 64.5993 66.4531 65.6225 66.2735 67.5865C66.2148 68.0266 66.2508 68.4743 66.3792 68.8993C66.5076 69.3242 66.7253 69.7165 67.0176 70.0496C67.3099 70.3827 67.67 70.6488 68.0734 70.8299C68.4769 71.0111 68.9144 71.103 69.3563 71.0995C69.7859 71.1202 70.2152 71.0515 70.6171 70.8975C71.019 70.7436 71.3849 70.5078 71.6919 70.205C71.9988 69.9022 72.2402 69.5389 72.4008 69.1379C72.5614 68.7369 72.6377 68.3068 72.6251 67.8747C72.6093 65.7397 71.3232 64.612 69.5391 64.5993ZM71.3674 68.1535C71.3525 68.4906 71.2486 68.8176 71.0663 69.101C70.8841 69.3843 70.63 69.6138 70.3303 69.7659C68.9496 70.4248 67.3956 69.4903 67.5564 67.71C67.5119 67.3829 67.5653 67.0499 67.7095 66.7532C67.8537 66.4565 68.0824 66.2096 68.3665 66.0438C68.5959 65.9022 68.8528 65.8115 69.1199 65.7777C70.6676 65.5275 71.5187 66.8104 71.3674 68.1535Z" fill="white"/>
<path d="M173.633 25.8325C173.003 25.8325 172.347 25.8325 171.704 25.8515C171.061 25.8705 170.897 26.0193 170.856 26.5959C170.847 26.6743 170.827 26.751 170.796 26.824C170.582 27.4132 170.361 27.9992 170.166 28.5884C170.046 28.9337 169.949 29.2853 169.826 29.6306C169.555 30.394 169.271 31.1543 168.997 31.9209C168.722 32.6874 168.448 33.4699 168.19 34.2492C168.023 34.756 167.874 35.2755 167.723 35.7823C167.619 36.0991 167.484 36.4159 167.364 36.7327H167.241C167.159 36.4666 167.09 36.1973 166.998 35.9375C166.746 35.209 166.481 34.4867 166.226 33.7613C166.106 33.416 166.011 33.0612 165.879 32.7191C165.583 31.9557 165.249 31.2018 164.962 30.4384C164.728 29.846 164.524 29.241 164.287 28.6486C164.004 27.9485 163.701 27.2548 163.398 26.561C163.332 26.3589 163.206 26.1818 163.037 26.0534C162.868 25.9249 162.664 25.8512 162.453 25.842C161.315 25.842 160.177 25.842 158.96 25.842C158.787 25.9497 158.843 26.1967 158.906 26.3995C159.023 26.7701 159.187 27.1249 159.338 27.4828C159.49 27.8408 159.672 28.1893 159.814 28.5504C160.076 29.2029 160.309 29.8618 160.568 30.5112C160.826 31.1606 161.072 31.7181 161.318 32.3232C161.69 33.2418 162.043 34.17 162.427 35.0823C162.771 35.8995 163.146 36.7042 163.502 37.5151C164.038 38.7336 164.564 39.9543 165.078 41.177C165.141 41.3034 165.16 41.4472 165.132 41.5856C164.99 42.0006 164.817 42.4061 164.647 42.8147C164.379 43.4799 164.108 44.1388 163.846 44.8072C163.669 45.2539 163.512 45.7069 163.342 46.1567C163.206 46.5083 163.048 46.8536 162.938 47.2116C162.901 47.4002 162.886 47.5927 162.894 47.7849C163.42 48.0605 166.298 48.051 166.992 47.7501L175.424 25.8926C175.206 25.8411 174.985 25.804 174.762 25.7818C174.393 25.7849 174.015 25.8261 173.633 25.8325Z" fill="white"/>
<path d="M105.411 68.654C105.575 68.5146 105.679 68.4386 105.77 68.3372C106.047 68.1204 106.301 67.8752 106.527 67.6055C106.71 67.3375 106.812 67.022 106.82 66.6971C106.829 66.3721 106.743 66.0517 106.574 65.7745C106.427 65.4704 106.198 65.2144 105.912 65.036C105.627 64.8577 105.296 64.7645 104.96 64.7672C104.263 64.7482 103.567 64.7672 102.873 64.7482H102.328C102.328 65.0269 102.3 65.293 102.3 65.556C102.3 67.1778 102.3 68.7997 102.3 70.4184C102.318 70.6164 102.353 70.8124 102.404 71.0045L103.472 70.9348C103.525 70.7947 103.562 70.6491 103.583 70.5008C103.583 70.0257 103.583 69.5505 103.583 69.0785C103.595 68.9513 103.621 68.8259 103.661 68.7047L103.844 68.6477L105.736 70.9316C106.117 70.957 106.467 70.9886 106.82 71.0013C107.072 71.0013 107.182 70.8841 107.135 70.7099L105.411 68.654ZM104.708 67.6498C104.522 67.7313 104.32 67.7685 104.118 67.7586C103.916 67.7487 103.719 67.692 103.542 67.5928V66.009C103.806 65.7429 104.689 65.7207 105.083 65.9614C105.269 66.0749 105.41 66.2511 105.479 66.4588C105.548 66.6664 105.542 66.8921 105.461 67.0955C105.341 67.4661 105.007 67.5643 104.711 67.6498H104.708Z" fill="white"/>
<path d="M187.554 58.3779V57.0221C187.727 56.9792 187.905 56.9506 188.083 56.9365C188.609 56.9365 189.136 56.9365 189.659 56.9365C189.843 56.9027 190.021 56.8441 190.189 56.7623C190.135 56.3822 190.094 56.0844 190.047 55.7613H189.53C189.045 55.7613 188.559 55.7613 188.074 55.7835C187.799 55.7835 187.591 55.698 187.557 55.416C187.541 55.1164 187.541 54.816 187.557 54.5164C187.736 54.4865 187.917 54.4664 188.099 54.4562C188.714 54.4562 189.331 54.4562 189.946 54.4752C190.163 54.4752 190.309 54.3833 190.324 54.1584C190.34 53.9335 190.324 53.6643 190.324 53.3538C190.16 53.3162 189.994 53.2897 189.826 53.2746C188.83 53.2746 187.834 53.2746 186.838 53.2429C186.463 53.2429 186.315 53.3665 186.321 53.7466C186.34 54.6684 186.353 55.5871 186.353 56.5089C186.353 57.4307 186.33 58.3493 186.327 59.2712C186.319 59.3238 186.323 59.3775 186.339 59.4283C186.355 59.479 186.382 59.5254 186.419 59.564C186.456 59.6025 186.5 59.6321 186.55 59.6506C186.6 59.669 186.653 59.6757 186.706 59.6703C187.885 59.6703 189.06 59.6703 190.236 59.6703C190.344 59.6513 190.45 59.6194 190.551 59.5753C190.551 59.1413 190.674 58.7358 190.425 58.3969C189.468 58.4519 188.509 58.4456 187.554 58.3779Z" fill="white"/>
<path d="M104.626 59.6449C105.033 59.5626 105.427 59.759 105.855 59.477C105.754 59.2426 105.657 59.0272 105.572 58.8087C105.326 58.1751 105.099 57.5416 104.84 56.908C104.465 55.9925 104.011 55.1024 103.696 54.1648C103.356 53.1511 103.334 53.2936 102.337 53.2999C102.269 53.3049 102.2 53.3145 102.133 53.3285C101.723 54.377 101.326 55.416 100.906 56.4424C100.487 57.4687 100.062 58.4951 99.6802 59.5816H100.96L101.515 58.4064H104.037L104.626 59.6449ZM103.479 57.247C102.977 57.3705 102.111 57.304 101.903 57.1044L102.719 55.0232C103.05 55.2893 103.592 56.984 103.479 57.247Z" fill="white"/>
<path d="M154.654 53.3348H153.639C153.584 53.4949 153.547 53.6607 153.529 53.829C153.529 54.8807 153.545 55.9355 153.548 56.9967C153.535 57.1456 153.509 57.293 153.469 57.437C153.207 57.1739 152.971 56.8865 152.763 56.5786C152.151 55.7138 151.527 54.8521 150.928 53.9778C150.613 53.4932 150.222 53.1701 149.519 53.3728C149.459 53.5184 149.419 53.672 149.403 53.829C149.403 55.5945 149.403 57.3589 149.403 59.1223C149.423 59.2755 149.465 59.425 149.529 59.5658H150.531C150.739 58.9037 150.61 58.2448 150.632 57.6017C150.654 56.9587 150.632 56.2713 150.632 55.5966C150.664 55.5966 150.727 55.5712 150.736 55.5966C151.717 56.9312 152.692 58.2628 153.661 59.5911H154.648C154.69 59.442 154.719 59.2893 154.733 59.1349C154.733 57.3568 154.733 55.5786 154.733 53.8005C154.723 53.6429 154.697 53.4868 154.654 53.3348Z" fill="white"/>
<path d="M161.97 58.3779C161.721 57.8172 161.453 57.2628 161.223 56.6958C160.81 55.6758 160.429 54.6431 160.016 53.6262C159.962 53.4964 159.824 53.3285 159.701 53.3095C159.372 53.289 159.043 53.289 158.714 53.3095L158.355 54.1806C157.674 55.8405 156.99 57.4972 156.319 59.1603C156.293 59.3091 156.293 59.4613 156.319 59.6101H157.463C157.702 59.173 157.92 58.7802 158.112 58.4349C158.796 58.4349 159.398 58.4349 160.003 58.4349C160.609 58.4349 160.587 58.4349 160.836 58.9702C160.959 59.2395 161.022 59.6038 161.412 59.6481C161.687 59.6735 161.961 59.6481 162.314 59.6481C162.347 59.5167 162.356 59.3806 162.342 59.2458C162.232 58.9354 162.096 58.6535 161.97 58.3779ZM159.382 55.4255C159.619 55.983 159.849 56.5374 160.101 57.1393H158.714C158.613 56.6388 158.998 55.6124 159.382 55.4192V55.4255Z" fill="white"/>
<path d="M99.2105 67.1715C98.9394 66.5063 98.7093 65.8284 98.4382 65.1632C98.3542 65.0042 98.248 64.8581 98.123 64.7292L97.0576 64.7799C97.0209 64.8203 96.9892 64.865 96.963 64.9129C96.5185 65.9836 96.0709 67.0543 95.6359 68.1282C95.3207 68.8789 95.0401 69.636 94.7438 70.3899C94.6823 70.4917 94.6605 70.6128 94.6826 70.7299C94.7048 70.8469 94.7692 70.9515 94.8637 71.0235L95.844 70.9601L96.405 69.7944H98.9268L99.5572 70.9918H100.582L100.749 70.7796C100.506 70.1777 100.304 69.6582 100.087 69.1418C99.7874 68.4861 99.4816 67.8367 99.2105 67.1715ZM96.7991 68.5051C97.1458 67.8272 97.3224 67.1525 97.6281 66.5348L97.751 66.5918C97.9685 67.2253 98.1829 67.8589 98.4193 68.5431C97.8806 68.6099 97.3352 68.6003 96.7991 68.5146V68.5051Z" fill="white"/>
<path d="M110.07 69.8071C109.952 69.3254 109.96 68.8214 110.092 68.3436C110.946 68.2422 111.763 68.4259 112.538 68.2359C112.689 67.6023 112.658 67.4408 112.396 67.2254C111.766 67.2254 111.179 67.2254 110.602 67.2254C110.322 67.2254 110.06 67.1525 110.026 66.8199C110 66.5348 110.026 66.2465 110.026 65.8379H112.894V64.764H109.067C108.752 64.9382 108.944 65.2709 108.941 65.5528C108.924 67.2127 108.913 68.8726 108.907 70.5325C108.923 70.6883 108.955 70.8421 109.001 70.9918H112.995C113.101 70.8126 113.157 70.6079 113.157 70.3994C113.157 70.1909 113.101 69.9863 112.995 69.8071H110.07Z" fill="white"/>
<path d="M169.091 56.6831C169.062 56.5206 169.011 56.3629 168.94 56.2143H167.027C166.324 56.2143 166.185 56.3917 166.418 57.1646L167.944 57.2565V58.2733C167.719 58.4489 167.46 58.573 167.182 58.637C166.905 58.701 166.618 58.7034 166.339 58.644C165.811 58.5608 165.335 58.2765 165.01 57.8501C164.685 57.4236 164.536 56.8878 164.593 56.3537C164.578 55.9694 164.679 55.5895 164.884 55.2643C165.088 54.9391 165.386 54.6838 165.737 54.5322C166.097 54.3493 166.501 54.2744 166.902 54.3165C167.303 54.3587 167.683 54.516 167.997 54.7698C168.083 54.8363 168.265 54.9218 168.313 54.8902C168.54 54.7081 168.732 54.4846 168.877 54.2313C168.99 53.9874 168.735 53.8258 168.536 53.7339C168.219 53.5788 167.891 53.4495 167.553 53.3475C167.032 53.1863 166.479 53.1615 165.945 53.2756C165.412 53.3897 164.917 53.6388 164.506 53.9993C164.096 54.3598 163.784 54.8197 163.6 55.3354C163.416 55.8512 163.366 56.4055 163.455 56.946C163.6 58.0294 164.086 58.9037 165.11 59.3662C165.605 59.5913 166.143 59.7078 166.686 59.7078C167.23 59.7078 167.767 59.5913 168.262 59.3662C169.019 59.0494 169.132 59.0114 169.107 58.0991C169.079 57.6334 169.11 57.1551 169.091 56.6831Z" fill="white"/>
<path d="M110.363 56.9555C111.425 56.4772 111.744 55.4889 111.365 54.472C111.05 53.6389 110.319 53.338 109.474 53.2968C108.844 53.2651 108.191 53.2524 107.548 53.2429C107.425 53.2603 107.304 53.2922 107.189 53.338V59.5974H108.349C108.484 58.8783 108.383 58.1624 108.421 57.3642C108.542 57.3051 108.672 57.2686 108.806 57.2565C109.342 57.2954 109.879 57.1916 110.363 56.9555ZM108.446 56.1446C108.385 55.5814 108.385 55.0131 108.446 54.4498C108.96 54.3145 109.506 54.3743 109.978 54.6177C110.125 54.762 110.216 54.9539 110.235 55.1593C110.254 55.3646 110.2 55.5701 110.082 55.7391C109.616 56.246 109.083 56.303 108.446 56.1604V56.1446Z" fill="white"/>
<path d="M172.385 58.4064V56.9999C172.538 56.9533 172.696 56.9215 172.855 56.9048C173.34 56.9048 173.826 56.9048 174.311 56.9048C174.482 56.8884 174.652 56.8599 174.819 56.8193C174.819 56.6103 174.847 56.4677 174.85 56.322C174.85 55.9292 174.724 55.8025 174.333 55.8056H172.376V54.4403H174.853C174.936 54.3706 175.003 54.2848 175.052 54.1881C175.1 54.0914 175.129 53.9859 175.135 53.8778C175.142 53.7697 175.127 53.6614 175.091 53.5594C175.055 53.4574 174.999 53.3637 174.926 53.2841H171.304C171.236 53.4407 171.189 53.6059 171.165 53.7751C171.165 55.5396 171.165 57.3072 171.165 59.0716C171.165 59.325 171.228 59.5087 171.433 59.5816H175.216C175.351 59.4148 175.422 59.204 175.414 58.9888C175.406 58.7735 175.32 58.5687 175.172 58.4127C174.239 58.4507 173.315 58.5711 172.385 58.4064Z" fill="white"/>
<path d="M146.9 57.1108C146.446 56.0232 145.985 54.9387 145.516 53.8575C145.437 53.6738 145.327 53.5027 145.232 53.3285H144.816C144.236 53.3095 144.167 53.3538 143.956 53.9082C143.833 54.2249 143.719 54.5417 143.596 54.8585C143.103 56.1129 142.605 57.3684 142.105 58.6249C142.004 58.8847 141.897 59.1413 141.79 59.3852C141.912 59.486 142.058 59.5536 142.213 59.5815C142.369 59.6094 142.529 59.5967 142.678 59.5445C142.827 59.4923 142.96 59.4025 143.065 59.2836C143.169 59.1647 143.242 59.0208 143.275 58.8657C143.439 58.3303 143.442 58.3272 143.978 58.3367H146.064L146.695 59.5341H147.738C147.744 59.395 147.734 59.2557 147.707 59.1191C147.445 58.4602 147.18 57.776 146.9 57.1108ZM145.538 57.2977H143.962L143.861 57.1868C144.155 56.4645 144.447 55.7423 144.737 55.0201H144.863C145.116 55.717 145.368 56.4138 145.642 57.1646L145.538 57.2977Z" fill="white"/>
<path d="M16.8284 67.2475C16.6705 67.2449 16.5155 67.2909 16.3843 67.3792C16.253 67.4675 16.1517 67.594 16.094 67.7417C16.0347 67.882 16.0171 68.0366 16.0434 68.1867C16.0697 68.3368 16.1388 68.476 16.2421 68.5875C16.3563 68.7326 16.5062 68.8452 16.6771 68.9141C16.8479 68.983 17.0338 69.0058 17.2161 68.9803C19.4226 68.9803 21.6008 68.9803 23.7916 68.9803C24.0263 68.9652 24.2588 68.9248 24.485 68.8599C24.5708 68.8335 24.6466 68.7816 24.7025 68.711C24.8272 68.5637 24.9064 68.3831 24.9305 68.1912C24.9545 67.9994 24.9225 67.8047 24.8381 67.6309C24.7089 67.3141 24.3873 67.2602 24.0752 67.2602H20.4913C19.2871 67.2475 18.0483 67.2475 16.8284 67.2475Z" fill="white"/>
<path d="M199.406 53.3095V54.4403L201.12 54.4942C201.177 56.2491 201.079 57.9154 201.177 59.6133L202.123 59.6893C202.369 59.6006 202.378 59.3979 202.375 59.1761C202.375 57.8034 202.375 56.4308 202.375 55.0581C202.375 54.8902 202.375 54.7223 202.403 54.5005C202.596 54.5005 202.737 54.4625 202.876 54.4594C203.191 54.4594 203.507 54.4594 203.822 54.4594C204.046 54.4594 204.238 54.377 204.254 54.1426C204.258 53.8588 204.243 53.5751 204.206 53.2936L199.406 53.3095Z" fill="white"/>
<path d="M64.7888 59.5816V58.3779H61.9518C61.9266 58.1466 61.895 57.9946 61.895 57.8393C61.895 56.4962 61.895 55.1531 61.895 53.81C61.8813 53.6337 61.8528 53.4588 61.8099 53.2873H60.6689C60.6272 53.4333 60.5988 53.5828 60.5838 53.734C60.5838 55.5248 60.5838 57.3198 60.5838 59.1191C60.604 59.2791 60.6453 59.4357 60.7067 59.5848L64.7888 59.5816Z" fill="white"/>
<path d="M139.385 53.2398C139.243 53.2588 139.105 53.2905 138.931 53.3253C138.266 54.4308 137.598 55.5427 136.885 56.7275L134.758 53.2809C134.584 53.2809 134.342 53.2239 134.102 53.2208C133.629 53.2208 133.519 53.3348 133.519 53.8005C133.519 55.5765 133.519 57.3557 133.519 59.1381C133.519 59.5689 133.645 59.6956 134.089 59.6988C134.22 59.7003 134.351 59.6908 134.48 59.6703C134.84 59.6101 134.947 59.4739 134.937 59.1128C134.915 58.2321 134.893 57.3515 134.881 56.4709C134.89 56.3287 134.912 56.1877 134.947 56.0496C135.057 56.1098 135.117 56.1224 135.142 56.1573C135.464 56.6127 135.756 57.0889 136.015 57.5827C136.362 58.3335 136.665 58.2892 137.371 58.1846L138.811 55.7676L138.928 55.8151C138.928 56.0305 138.881 56.2428 138.878 56.4487C138.878 57.2786 138.878 58.1086 138.878 58.9386C138.878 59.5721 139.086 59.7653 139.719 59.6893C139.845 59.6893 139.971 59.6323 140.148 59.5911C140.181 59.4174 140.203 59.2417 140.214 59.0653C140.214 57.3642 140.183 55.6631 140.233 53.962C140.249 53.3601 140.129 53.1543 139.385 53.2398Z" fill="white"/>
<path d="M92.572 65.1125C92.4207 65.6922 92.3009 66.2814 92.1559 66.8611C92.0456 67.3109 91.9132 67.7544 91.784 68.2137C91.4278 68.1345 91.3994 67.8969 91.3552 67.6879C91.3111 67.4788 91.3238 67.2634 91.2671 67.0543C91.0937 66.4524 90.8888 65.86 90.7123 65.2582C90.5357 64.6563 90.5358 64.6563 89.9337 64.7133C89.8689 64.7228 89.803 64.7228 89.7382 64.7133C89.3789 64.6436 89.2717 64.8432 89.2465 65.1537C89.237 65.2843 89.2148 65.4138 89.1803 65.5401C88.9691 66.3162 88.7484 67.0955 88.5341 67.8716L88.345 68.5431L88.2252 68.5241C87.9099 67.257 87.5664 66.0121 87.2291 64.7228H85.9177C85.8745 64.8468 85.8574 64.9784 85.8673 65.1093C85.9871 65.5686 86.1479 66.0216 86.2866 66.4778C86.3906 66.8262 86.4663 67.1842 86.5797 67.5326C86.7405 68.0236 86.9423 68.502 87.0841 68.9961C87.226 69.4903 87.3426 70.089 87.4876 70.6307C87.5382 70.7469 87.6073 70.8539 87.6925 70.9475H88.7516C88.8025 70.8645 88.8467 70.7776 88.884 70.6877C89.1708 69.7374 89.4482 68.787 89.7414 67.8589C89.7988 67.7421 89.8743 67.6351 89.9652 67.5421L90.085 67.558L91.1094 70.9696H92.2852C92.8904 68.9328 93.4924 66.9086 94.1197 64.7925L93.2309 64.669C92.8558 64.6658 92.6634 64.7672 92.572 65.1125Z" fill="white"/>
<path d="M98.4383 59.2458C98.4793 58.9734 98.5265 58.6725 98.5896 58.2607C98.4346 58.2426 98.278 58.2426 98.1231 58.2607C97.9497 58.3145 97.8078 58.4222 97.625 58.4919C97.3626 58.6161 97.078 58.6857 96.7882 58.6965C96.4984 58.7074 96.2094 58.6594 95.9385 58.5553C94.8227 58.0738 94.3372 56.6324 94.829 55.5079C95.2167 54.6241 95.9795 54.2408 97.0544 54.3517C97.4552 54.4281 97.8478 54.5426 98.227 54.6938C98.4855 54.4625 98.5202 54.0887 98.309 53.5914C97.3003 53.1733 96.2601 53.037 95.2167 53.528C94.6539 53.7848 94.1925 54.2229 93.9054 54.773L93.7825 55.0897C93.7604 55.1563 93.7383 55.2196 93.7194 55.2861C93.7005 55.3527 93.6942 55.3685 93.6848 55.4129C93.5924 55.625 93.5246 55.8471 93.483 56.0749C93.4414 56.6385 93.5111 57.2047 93.6879 57.7411C93.7951 58.1426 94.0006 58.5107 94.2859 58.8118C94.5711 59.1128 94.9269 59.3372 95.3207 59.4644C95.8284 59.6397 96.3661 59.7107 96.9016 59.6732C97.4371 59.6356 97.9597 59.4903 98.4383 59.2458Z" fill="white"/>
<path d="M83.8311 64.8052C82.6269 64.8052 81.4197 64.7799 80.2155 64.783C80.0588 64.8094 79.9075 64.8618 79.7679 64.9383C79.79 65.2107 79.8057 65.4197 79.8215 65.6668C80.3605 66.0184 81.0067 65.6383 81.5835 65.8981C81.6106 65.9661 81.6287 66.0375 81.6372 66.1103C81.6372 67.4281 81.6371 68.7427 81.6024 70.0605C81.5867 70.976 81.5521 70.9665 82.4977 70.9791C82.5476 70.9645 82.5961 70.9454 82.6427 70.9221C82.688 70.7693 82.7176 70.6122 82.7309 70.4533C82.7309 69.031 82.7309 67.6023 82.7309 66.1832C82.7459 66.0601 82.7778 65.9396 82.8255 65.8252C83.4213 65.7429 83.9824 65.9424 84.4867 65.6953C84.6507 64.9414 84.5372 64.8084 83.8311 64.8052Z" fill="white"/>
<path d="M63.3609 67.3647C62.8124 67.1145 62.1599 67.048 61.7848 66.4714C61.892 65.8379 62.3806 65.4673 62.8975 65.6225C63.2777 65.749 63.6485 65.9025 64.0071 66.0818C64.2624 66.2022 64.4767 66.1388 64.5303 65.8886C64.6816 65.2233 64.4673 64.8844 63.8053 64.7419C63.7668 64.7368 63.7289 64.7283 63.6919 64.7165C63.0236 64.3997 62.3711 64.4694 61.6839 64.7165C61.3165 64.8217 60.9938 65.0456 60.7659 65.3537C60.5379 65.6618 60.4174 66.0369 60.423 66.4208C60.3931 66.7175 60.451 67.0164 60.5896 67.2801C60.7281 67.5439 60.941 67.7607 61.2016 67.9033C61.6051 68.1345 62.0338 68.3245 62.4625 68.5368C62.8912 68.749 63.3608 68.7807 63.5468 69.2875C63.4901 69.6962 63.3072 69.9496 62.8407 69.9528C62.1567 69.9528 61.4759 70.0066 60.9022 69.5283C60.8037 69.4751 60.6972 69.4387 60.5869 69.4206C60.2717 69.8229 60.423 70.2252 60.464 70.561C60.6546 70.7486 60.8812 70.8956 61.1298 70.993C61.3784 71.0905 61.6441 71.1364 61.9108 71.128C61.9765 71.1318 62.0419 71.1402 62.1063 71.1533C62.4523 71.2218 62.8083 71.2209 63.1539 71.1508C63.4996 71.0807 63.8281 70.9427 64.1205 70.7447C64.4657 70.5224 64.7215 70.1845 64.8427 69.7908C64.9638 69.3972 64.9426 68.9732 64.7825 68.5938C64.5398 67.9001 63.944 67.6372 63.3609 67.3647Z" fill="white"/>
<path d="M87.7492 54.8395C87.6105 56.0654 88.4553 56.6293 89.3758 56.9619C89.8048 57.1105 90.2186 57.3004 90.6114 57.5289C90.9897 57.7538 90.996 57.9312 90.7564 58.3715C90.0156 58.7707 89.2812 58.6218 88.5499 58.3177C88.3387 58.229 88.1212 58.1625 87.9005 58.0864C87.6294 58.4602 87.787 58.8214 87.7429 59.2585C88.0479 59.4113 88.364 59.5404 88.6885 59.645C89.7225 59.9079 90.7343 59.9269 91.6453 59.2426C91.8265 59.094 91.9759 58.91 92.0846 58.7019C92.1933 58.4937 92.259 58.2657 92.2778 58.0314C92.2967 57.7971 92.2682 57.5614 92.1942 57.3384C92.1202 57.1154 92.0021 56.9098 91.847 56.7338C91.2544 56.0781 90.4349 55.9007 89.6784 55.5934C89.174 55.3907 89.0069 55.0929 89.256 54.5924C89.8864 54.1806 90.5168 54.3422 91.1473 54.5924C91.3648 54.6779 91.5981 54.7254 91.8881 54.8078C91.9164 54.4055 91.9353 54.1109 91.9574 53.7878C91.825 53.6643 91.7367 53.5249 91.6106 53.471C90.6492 53.0751 89.672 52.8913 88.7075 53.4457C88.4467 53.5817 88.223 53.7799 88.0559 54.0229C87.8889 54.2658 87.7836 54.5462 87.7492 54.8395Z" fill="white"/>
<path d="M74.2863 65.2075C74.2863 66.973 74.2863 68.7385 74.2863 70.504C74.2979 70.6622 74.3232 70.819 74.3619 70.9728H75.6228V68.5907C76.4707 68.4956 77.265 68.6572 78.0373 68.521V67.2539H75.6354C75.6133 66.7819 75.5944 66.3859 75.5755 65.9456C75.771 65.9234 75.9349 65.8949 76.0988 65.8917C76.6756 65.8917 77.2525 65.8917 77.8293 65.8917C77.9839 65.8787 78.1375 65.8565 78.2895 65.8252V64.7862H74.3619C74.3251 64.9243 74.2998 65.0652 74.2863 65.2075Z" fill="white"/>
<path d="M86.2835 55.1816C86.1243 54.7277 85.8502 54.3233 85.4881 54.0084C85.1261 53.6934 84.6886 53.4787 84.2188 53.3855C83.2831 53.2787 82.3424 53.2226 81.4008 53.2176C81.2648 53.2333 81.1319 53.2696 81.0067 53.3253V59.5658C81.1475 59.6265 81.296 59.667 81.448 59.6861C82.2707 59.6671 83.0966 59.6608 83.913 59.5879C85.4292 59.4549 86.5483 58.0611 86.523 56.5184C86.5087 56.0634 86.428 55.613 86.2835 55.1816ZM84.7515 57.9597C84.1872 58.5362 82.7562 58.7643 82.2676 58.3208V54.5766C82.7783 54.1901 84.2976 54.415 84.7452 54.9314C85.3693 55.6504 85.3693 57.3293 84.7515 57.9597Z" fill="white"/>
<path d="M113.651 53.2113C113.559 53.2113 113.468 53.2113 113.373 53.2113C113.023 53.2113 112.888 53.3887 112.891 53.734C112.891 55.435 112.891 57.1329 112.891 58.834C112.891 59.0874 112.923 59.344 112.945 59.6513H114.168V58.8213C114.168 57.1213 114.168 55.4202 114.168 53.7181C114.168 53.3095 114.06 53.2113 113.651 53.2113Z" fill="white"/>
<path d="M183.966 53.376C183.749 53.1669 182.954 53.2809 182.791 53.5407C182.686 53.732 182.591 53.9287 182.507 54.1299L182.381 54.2883L182.125 54.6906L181.974 54.9187C181.949 54.9757 181.921 55.0295 181.892 55.0866L181.839 55.1689C181.728 55.3527 181.621 55.5396 181.523 55.7264L181.467 55.8088L181.271 56.1256C181.249 56.1256 181.24 56.1256 181.243 56.1573L180.757 56.8162C180.663 56.6894 180.6 56.6039 180.54 56.5152C180.48 56.4265 180.398 56.3061 180.329 56.1984L180.266 56.1224L180.07 55.8056L180.013 55.7233L179.894 55.5174L179.793 55.4002L179.708 55.2323L179.641 55.1563L179.446 54.8395L179.399 54.7571C179.311 54.5987 179.225 54.4403 179.14 54.282L179.08 54.2059L178.743 53.6516L178.554 53.4615C178.371 53.1447 178.062 53.2841 177.81 53.2714C177.558 53.2588 177.385 53.452 177.4 53.7371C177.4 53.9208 177.448 54.1046 177.448 54.2883C177.448 55.8299 177.448 57.3726 177.448 58.9164C177.448 59.5784 177.448 59.5879 178.119 59.5974C178.529 59.5974 178.623 59.5056 178.62 59.1001C178.62 58.3493 178.62 57.5986 178.598 56.8478C178.587 56.7221 178.568 56.5973 178.541 56.474C178.541 56.531 178.504 56.5912 178.488 56.6514C178.488 56.5912 178.526 56.531 178.541 56.474C178.541 56.2428 178.541 56.0115 178.516 55.7803L178.708 55.6124L178.901 55.7835L179.055 56.1002L179.235 56.417L179.292 56.493L179.402 56.7211C179.403 56.7291 179.407 56.7364 179.413 56.7421C179.418 56.7478 179.426 56.7516 179.433 56.7528L179.884 57.4244C179.903 57.4529 179.919 57.4846 179.935 57.5131L180.054 57.7253C180.054 57.7443 180.054 57.757 180.083 57.757C180.118 57.8108 180.152 57.8615 180.184 57.9154L180.521 58.1276H180.921L181.236 58.0326L181.454 57.7538C181.458 57.7538 181.462 57.753 181.466 57.7514C181.469 57.7498 181.473 57.7473 181.475 57.7444C181.478 57.7414 181.48 57.7379 181.481 57.734C181.482 57.7302 181.483 57.7261 181.482 57.7221L181.851 57.0474L181.911 56.9619L181.999 56.8003C182.004 56.8008 182.008 56.8004 182.012 56.7989C182.016 56.7975 182.02 56.7952 182.023 56.7922C182.026 56.7891 182.028 56.7854 182.029 56.7813C182.031 56.7773 182.031 56.7729 182.031 56.7686L182.832 55.5712L182.986 55.8025V56.0749C182.97 56.1097 182.939 56.1414 182.939 56.1763C182.939 57.1899 182.917 58.2005 182.923 59.2141C182.948 59.3562 182.996 59.4932 183.065 59.6196C183.314 59.6196 183.506 59.6196 183.695 59.6196C183.755 59.6211 183.814 59.6096 183.868 59.5858C183.923 59.5621 183.972 59.5266 184.011 59.482C184.051 59.4374 184.08 59.3847 184.098 59.3275C184.115 59.2703 184.12 59.21 184.111 59.1508C184.111 57.3388 184.111 55.5269 184.111 53.7118C184.104 53.5861 184.053 53.4672 183.966 53.376Z" fill="white"/>
<path d="M68.0923 58.4127C68.7227 58.4127 69.3783 58.4127 70.034 58.4127C70.3492 58.4127 70.595 58.5267 70.6392 58.8974C70.6773 59.0114 70.7338 59.1184 70.8063 59.2141L70.8851 59.325C70.926 59.4105 70.9513 59.5468 71.0143 59.5689C71.2033 59.6508 71.4079 59.6892 71.6135 59.6816C71.819 59.6739 72.0204 59.6203 72.2027 59.5246C72.2055 59.4182 72.1959 59.3119 72.1743 59.2078C72.0136 58.7517 71.8433 58.3018 71.6763 57.8488C71.5857 57.5357 71.4698 57.2306 71.3296 56.9365C70.9507 56.2449 70.6443 55.5156 70.4154 54.7603C70.3098 54.4258 70.1748 54.1014 70.0119 53.791C69.866 53.5671 69.7027 53.3552 69.5234 53.1574L68.5146 53.3063C68.468 53.5017 68.4015 53.6917 68.3161 53.8733C67.8054 54.7001 67.591 55.6441 67.2664 56.5437C67.2664 56.6008 67.2506 56.6578 67.2411 56.7148C67.2317 56.7718 67.1529 56.775 67.134 56.8162C66.7999 57.6271 66.4657 58.4381 66.1442 59.2553C66.1237 59.3993 66.1237 59.5454 66.1442 59.6893L67.2853 59.6323C67.6951 59.2395 67.5596 58.6218 68.0923 58.4127ZM68.1931 57.2691L69.0789 55.1594H69.2459L70.0781 57.2628L68.1931 57.2691Z" fill="white"/>
<path d="M92.4838 39.8085L92.5721 40.0303L92.6761 40.252C92.6757 40.2562 92.6761 40.2604 92.6773 40.2644C92.6785 40.2684 92.6804 40.2721 92.683 40.2754C92.6857 40.2786 92.6889 40.2813 92.6926 40.2833C92.6963 40.2852 92.7003 40.2865 92.7044 40.2869L92.9062 40.5054L93.0102 40.6131C93.0858 40.6765 93.1616 40.7399 93.2404 40.8L93.3948 40.9394L93.6091 41.139C93.6105 41.1474 93.6147 41.1551 93.621 41.1609C93.6273 41.1666 93.6353 41.1701 93.6438 41.1707C93.6911 41.2087 93.7416 41.2435 93.792 41.2784L93.9496 41.4114L94.8953 41.839L95.1884 41.9278C95.4029 42.0069 95.6231 42.0694 95.8472 42.1146C96.7938 42.2819 97.7666 42.2189 98.6841 41.9309L98.8859 41.8961L99.945 41.5318C99.95 41.5332 99.9553 41.5335 99.9604 41.5326C99.9656 41.5317 99.9704 41.5297 99.9747 41.5266C99.9789 41.5236 99.9824 41.5196 99.9849 41.515C99.9874 41.5104 99.9889 41.5053 99.9892 41.5001L101.171 40.8982L101.486 41.4621L101.698 41.63C101.858 41.7187 102.013 41.8866 102.183 41.8866C103.069 41.8866 103.955 41.8676 104.84 41.8296C104.922 41.8296 104.998 41.687 105.074 41.6078C105.095 41.5784 105.115 41.5477 105.134 41.5159C105.195 41.3768 105.236 41.2296 105.256 41.0788C105.256 39.0008 105.285 36.9196 105.256 34.8415C105.256 33.3337 105.408 31.8131 105.089 30.318C105.004 29.922 104.859 29.5387 104.74 29.1522L104.676 28.9875C104.623 28.8291 104.566 28.6707 104.509 28.5123L104.254 28.1671L104.103 27.8915L104.04 27.8028L103.866 27.5684L103.759 27.4733L103.539 27.2769L103.425 27.1661L103.226 26.957L103.063 26.824L102.905 26.7352L102.817 26.6751L102.669 26.5832L102.508 26.5104L102.353 26.4248L102.189 26.3551C101.723 25.975 101.149 25.9402 100.594 25.8388C100.496 25.8383 100.398 25.8533 100.304 25.8831L100.156 25.8609C100.093 25.8293 100.03 25.7691 99.9639 25.7659C99.3335 25.7659 98.7031 25.7406 98.0915 25.7659C97.7733 25.797 97.4574 25.8489 97.1459 25.9211L96.7928 25.9655L96.3578 26.0954L96.1624 26.1239L95.8283 26.1682L95.2955 26.3456L95.1222 26.4122L94.4918 26.6561L93.9465 26.8303L93.7857 26.9L93.6218 26.976C93.614 26.9768 93.6067 26.9805 93.6014 26.9863C93.5962 26.9922 93.5933 26.9998 93.5934 27.0077C93.5062 27.1684 93.4434 27.3414 93.4074 27.5209C93.3821 27.9802 93.3916 28.4395 93.4074 28.8957C93.4074 29.1649 93.4453 29.4342 93.4642 29.7034C93.4799 29.8745 93.4957 30.0455 93.5083 30.2166C93.6312 30.4383 93.7195 30.4415 93.8991 30.2166L94.2963 29.9854L94.8479 29.7478L95.0024 29.6591L95.1758 29.6052L95.8755 29.355L96.153 29.317L97.0576 29.1206L98.6716 29.054L98.9458 29.0794L99.2295 29.1111L99.6897 29.2061L99.8599 29.2694L100.251 29.5102L100.402 29.6179L100.654 29.8175C100.686 29.8713 100.72 29.9252 100.755 29.9759C100.84 30.1564 100.929 30.3338 101.017 30.5112L101.064 30.7678C101.064 31.0434 101.064 31.319 101.064 31.5946C101.042 31.9462 100.995 32.2946 100.96 32.6431L100.289 32.5829L97.6566 32.5291L97.4012 32.5512L97.108 32.5829L96.3736 32.7888L95.6895 32.8997L95.5225 32.9725L94.7439 33.2228L94.58 33.2925L94.4981 33.3463L94.2522 33.4319L94.1041 33.5079L93.896 33.6283H93.8708V33.6504L93.6312 33.8342L93.5587 33.8975L93.2435 34.1636L93.2151 34.1858L92.9945 34.3949L92.9031 34.5026L92.6414 34.8193L92.5563 34.9682C91.7556 36.2353 91.8092 37.5753 92.0866 38.9501C92.1843 39.2512 92.3176 39.5394 92.4838 39.8085ZM96.0489 36.815C96.2191 35.9534 96.7865 35.5479 97.625 35.3357C98.5627 35.1688 99.5215 35.1602 100.462 35.3103C100.676 35.3357 100.922 35.2407 101.048 35.5543C101.048 36.286 101.048 37.0494 101.048 37.8129C101.045 37.9014 101.024 37.9883 100.985 38.0679C100.947 38.1476 100.892 38.2183 100.824 38.2753C99.8207 38.9588 98.5942 39.2287 97.3981 39.0293C96.2381 38.817 95.885 37.6735 96.0489 36.815Z" fill="white"/>
<path d="M93.7825 55.1087L93.9054 54.792C93.7195 54.8331 93.6596 54.9345 93.7825 55.1087Z" fill="white"/>
</svg>
