<svg width="23" height="27" viewBox="0 0 23 27" fill="none" xmlns="http://www.w3.org/2000/svg">
<path d="M10.7381 12.9168L0.0976562 24.3398C0.0986556 24.3418 0.0986555 24.3448 0.0996549 24.3468C0.426454 25.5872 1.54577 26.5 2.87495 26.5C3.40663 26.5 3.90532 26.3544 4.33306 26.0997L4.36704 26.0795L16.3437 19.0892L10.7381 12.9168Z" fill="#EA4335"/>
<path d="M21.5033 10.9717L21.4933 10.9646L16.3225 7.93296L10.4971 13.1764L16.3435 19.088L21.4863 16.0867C22.3878 15.5934 23.0004 14.6321 23.0004 13.5241C23.0004 12.4223 22.3968 11.466 21.5033 10.9717Z" fill="#FBBC04"/>
<path d="M0.0979399 2.6594C0.0339792 2.89796 0 3.14866 0 3.40745V23.5927C0 23.8515 0.0339792 24.1022 0.0989393 24.3397L11.1042 13.2089L0.0979399 2.6594Z" fill="#4285F4"/>
<path d="M10.8171 13.4999L16.3237 7.93094L4.36104 0.915442C3.92631 0.651602 3.41862 0.49997 2.87595 0.49997C1.54677 0.49997 0.425455 1.41482 0.0986551 2.65618C0.0986551 2.65719 0.0976562 2.6582 0.0976562 2.65921L10.8171 13.4999Z" fill="#34A853"/>
</svg>
