<svg width="25" height="25" viewBox="0 0 25 25" fill="none" xmlns="http://www.w3.org/2000/svg">
<path d="M21.5 11.5511V6.62325C21.5 5.84825 20.9145 5.20502 20.1551 5.07302C17.095 4.54108 14.5546 3.35772 13.3152 2.70154C12.8077 2.43282 12.1923 2.43282 11.6848 2.70154C10.4454 3.35772 7.90502 4.54108 4.84489 5.07302C4.08552 5.20502 3.5 5.84825 3.5 6.62325V11.5511C3.5 17.9795 10.0376 21.4859 11.9689 22.3815C12.3097 22.5395 12.6903 22.5395 13.0311 22.3815C14.9624 21.4859 21.5 17.9795 21.5 11.5511Z" stroke="#3BA334" stroke-width="2" stroke-linecap="round"/>
<path d="M21.5 11.5511V6.62325C21.5 5.84825 20.9145 5.20502 20.1551 5.07302C17.095 4.54108 14.5546 3.35772 13.3152 2.70154C12.8077 2.43282 12.1923 2.43282 11.6848 2.70154C10.4454 3.35772 7.90502 4.54108 4.84489 5.07302C4.08552 5.20502 3.5 5.84825 3.5 6.62325V11.5511C3.5 17.9795 10.0376 21.4859 11.9689 22.3815C12.3097 22.5395 12.6903 22.5395 13.0311 22.3815C14.9624 21.4859 21.5 17.9795 21.5 11.5511Z" stroke="black" stroke-opacity="0.2" stroke-width="2" stroke-linecap="round"/>
</svg>
