<svg width="25" height="25" viewBox="0 0 25 25" fill="none" xmlns="http://www.w3.org/2000/svg">
<path fill-rule="evenodd" clip-rule="evenodd" d="M12.5 1.5C13.0523 1.5 13.5 1.94772 13.5 2.5V4.5C13.5 5.05228 13.0523 5.5 12.5 5.5C11.9477 5.5 11.5 5.05228 11.5 4.5V2.5C11.5 1.94772 11.9477 1.5 12.5 1.5ZM1.5 12.5C1.5 11.9477 1.94772 11.5 2.5 11.5H4.5C5.05228 11.5 5.5 11.9477 5.5 12.5C5.5 13.0523 5.05228 13.5 4.5 13.5H2.5C1.94772 13.5 1.5 13.0523 1.5 12.5ZM19.5 12.5C19.5 11.9477 19.9477 11.5 20.5 11.5H22.5C23.0523 11.5 23.5 11.9477 23.5 12.5C23.5 13.0523 23.0523 13.5 22.5 13.5H20.5C19.9477 13.5 19.5 13.0523 19.5 12.5ZM12.5 19.5C13.0523 19.5 13.5 19.9477 13.5 20.5V22.5C13.5 23.0523 13.0523 23.5 12.5 23.5C11.9477 23.5 11.5 23.0523 11.5 22.5V20.5C11.5 19.9477 11.9477 19.5 12.5 19.5Z" fill="#3BA334"/>
<path fill-rule="evenodd" clip-rule="evenodd" d="M12.5 1.5C13.0523 1.5 13.5 1.94772 13.5 2.5V4.5C13.5 5.05228 13.0523 5.5 12.5 5.5C11.9477 5.5 11.5 5.05228 11.5 4.5V2.5C11.5 1.94772 11.9477 1.5 12.5 1.5ZM1.5 12.5C1.5 11.9477 1.94772 11.5 2.5 11.5H4.5C5.05228 11.5 5.5 11.9477 5.5 12.5C5.5 13.0523 5.05228 13.5 4.5 13.5H2.5C1.94772 13.5 1.5 13.0523 1.5 12.5ZM19.5 12.5C19.5 11.9477 19.9477 11.5 20.5 11.5H22.5C23.0523 11.5 23.5 11.9477 23.5 12.5C23.5 13.0523 23.0523 13.5 22.5 13.5H20.5C19.9477 13.5 19.5 13.0523 19.5 12.5ZM12.5 19.5C13.0523 19.5 13.5 19.9477 13.5 20.5V22.5C13.5 23.0523 13.0523 23.5 12.5 23.5C11.9477 23.5 11.5 23.0523 11.5 22.5V20.5C11.5 19.9477 11.9477 19.5 12.5 19.5Z" fill="black" fill-opacity="0.2"/>
<path fill-rule="evenodd" clip-rule="evenodd" d="M12.5 5.5C8.63401 5.5 5.5 8.63401 5.5 12.5C5.5 16.366 8.63401 19.5 12.5 19.5C16.366 19.5 19.5 16.366 19.5 12.5C19.5 8.63401 16.366 5.5 12.5 5.5ZM3.5 12.5C3.5 7.52944 7.52944 3.5 12.5 3.5C17.4706 3.5 21.5 7.52944 21.5 12.5C21.5 17.4706 17.4706 21.5 12.5 21.5C7.52944 21.5 3.5 17.4706 3.5 12.5Z" fill="#3BA334"/>
<path fill-rule="evenodd" clip-rule="evenodd" d="M12.5 5.5C8.63401 5.5 5.5 8.63401 5.5 12.5C5.5 16.366 8.63401 19.5 12.5 19.5C16.366 19.5 19.5 16.366 19.5 12.5C19.5 8.63401 16.366 5.5 12.5 5.5ZM3.5 12.5C3.5 7.52944 7.52944 3.5 12.5 3.5C17.4706 3.5 21.5 7.52944 21.5 12.5C21.5 17.4706 17.4706 21.5 12.5 21.5C7.52944 21.5 3.5 17.4706 3.5 12.5Z" fill="black" fill-opacity="0.2"/>
<path fill-rule="evenodd" clip-rule="evenodd" d="M8.75 12.5C8.75 10.4289 10.4289 8.75 12.5 8.75C14.5711 8.75 16.25 10.4289 16.25 12.5C16.25 14.5711 14.5711 16.25 12.5 16.25C10.4289 16.25 8.75 14.5711 8.75 12.5Z" fill="#3BA334"/>
<path fill-rule="evenodd" clip-rule="evenodd" d="M8.75 12.5C8.75 10.4289 10.4289 8.75 12.5 8.75C14.5711 8.75 16.25 10.4289 16.25 12.5C16.25 14.5711 14.5711 16.25 12.5 16.25C10.4289 16.25 8.75 14.5711 8.75 12.5Z" fill="black" fill-opacity="0.2"/>
</svg>
