<svg width="25" height="25" viewBox="0 0 25 25" fill="none" xmlns="http://www.w3.org/2000/svg">
<path d="M16.5 2.5V6.5M8.5 2.5V6.5" stroke="#3BA334" stroke-width="2" stroke-linecap="round" stroke-linejoin="round"/>
<path d="M16.5 2.5V6.5M8.5 2.5V6.5" stroke="black" stroke-opacity="0.2" stroke-width="2" stroke-linecap="round" stroke-linejoin="round"/>
<path d="M13.5 4.5H11.5C7.72876 4.5 5.84315 4.5 4.67157 5.67157C3.5 6.84315 3.5 8.72876 3.5 12.5V14.5C3.5 18.2712 3.5 20.1569 4.67157 21.3284C5.84315 22.5 7.72876 22.5 11.5 22.5H13.5C17.2712 22.5 19.1569 22.5 20.3284 21.3284C21.5 20.1569 21.5 18.2712 21.5 14.5V12.5C21.5 8.72876 21.5 6.84315 20.3284 5.67157C19.1569 4.5 17.2712 4.5 13.5 4.5Z" stroke="#3BA334" stroke-width="2" stroke-linecap="round" stroke-linejoin="round"/>
<path d="M13.5 4.5H11.5C7.72876 4.5 5.84315 4.5 4.67157 5.67157C3.5 6.84315 3.5 8.72876 3.5 12.5V14.5C3.5 18.2712 3.5 20.1569 4.67157 21.3284C5.84315 22.5 7.72876 22.5 11.5 22.5H13.5C17.2712 22.5 19.1569 22.5 20.3284 21.3284C21.5 20.1569 21.5 18.2712 21.5 14.5V12.5C21.5 8.72876 21.5 6.84315 20.3284 5.67157C19.1569 4.5 17.2712 4.5 13.5 4.5Z" stroke="black" stroke-opacity="0.2" stroke-width="2" stroke-linecap="round" stroke-linejoin="round"/>
<path d="M3.5 10.5H21.5" stroke="#3BA334" stroke-width="2" stroke-linecap="round" stroke-linejoin="round"/>
<path d="M3.5 10.5H21.5" stroke="black" stroke-opacity="0.2" stroke-width="2" stroke-linecap="round" stroke-linejoin="round"/>
<path d="M9.5 17C9.5 17 11 17.5 11.5 19C11.5 19 13.6765 15 16.5 14" stroke="#3BA334" stroke-width="2" stroke-linecap="round" stroke-linejoin="round"/>
<path d="M9.5 17C9.5 17 11 17.5 11.5 19C11.5 19 13.6765 15 16.5 14" stroke="black" stroke-opacity="0.2" stroke-width="2" stroke-linecap="round" stroke-linejoin="round"/>
</svg>
