<svg width="332" height="328" viewBox="0 0 332 328" fill="none" xmlns="http://www.w3.org/2000/svg">
<path d="M265.615 263.091C265.615 264.344 264.596 265.381 263.345 265.381C262.094 265.381 261.076 264.361 261.076 263.091C261.076 261.838 262.094 260.818 263.345 260.818C264.596 260.818 265.615 261.838 265.615 263.091Z" fill="#02DBF3"/>
<path d="M265.954 249.275C265.954 250.027 265.347 250.635 264.596 250.635C263.846 250.635 263.22 250.027 263.22 249.275C263.22 248.523 263.846 247.897 264.596 247.897C265.365 247.915 265.954 248.523 265.954 249.275Z" fill="#02DBF3"/>
<path d="M283.252 282.204C283.252 282.956 282.644 283.564 281.876 283.564C281.125 283.564 280.518 282.956 280.518 282.204C280.518 281.452 281.125 280.826 281.876 280.826C282.644 280.826 283.252 281.452 283.252 282.204Z" fill="#02DBF3"/>
<path d="M294.6 266.992C294.6 268.316 293.527 269.39 292.223 269.39C290.901 269.39 289.846 268.316 289.846 266.992C289.846 265.668 290.918 264.594 292.223 264.594C293.545 264.594 294.6 265.668 294.6 266.992Z" fill="#02DBF3"/>
<path d="M277.927 252.801C277.927 253.409 277.444 253.892 276.837 253.892C276.229 253.892 275.747 253.409 275.747 252.801C275.747 252.192 276.229 251.709 276.837 251.709C277.462 251.691 277.927 252.174 277.927 252.801Z" fill="#02DBF3"/>
<path d="M180.484 277.479C180.484 278.732 179.465 279.752 178.196 279.752C176.946 279.752 175.927 278.732 175.927 277.479C175.927 276.227 176.946 275.189 178.196 275.189C179.465 275.206 180.484 276.227 180.484 277.479Z" fill="#02DBF3"/>
<path d="M180.823 263.664C180.823 264.415 180.216 265.042 179.447 265.042C178.697 265.042 178.089 264.415 178.089 263.664C178.089 262.912 178.697 262.286 179.447 262.286C180.216 262.286 180.823 262.912 180.823 263.664Z" fill="#02DBF3"/>
<path d="M198.103 296.592C198.103 297.344 197.495 297.952 196.745 297.952C195.994 297.952 195.369 297.344 195.369 296.592C195.369 295.841 195.976 295.214 196.745 295.214C197.495 295.232 198.103 295.841 198.103 296.592Z" fill="#02DBF3"/>
<path d="M209.469 281.381C209.469 282.705 208.397 283.761 207.074 283.761C205.752 283.761 204.698 282.687 204.698 281.381C204.698 280.056 205.77 279 207.074 279C208.397 279 209.469 280.056 209.469 281.381Z" fill="#02DBF3"/>
<path d="M192.796 267.189C192.796 267.798 192.313 268.281 191.688 268.281C191.098 268.281 190.598 267.798 190.598 267.189C190.598 266.581 191.08 266.098 191.688 266.098C192.296 266.08 192.796 266.581 192.796 267.189Z" fill="#02DBF3"/>
<path d="M98.8731 276.621C100.035 277.068 100.642 278.374 100.213 279.555C99.7666 280.737 98.4621 281.345 97.2827 280.898C96.1033 280.45 95.5136 279.144 95.9425 277.963C96.3713 276.782 97.6937 276.191 98.8731 276.621Z" fill="#02DBF3"/>
<path d="M86.0604 271.484C86.7752 271.753 87.1326 272.54 86.8646 273.238C86.5965 273.954 85.8103 274.312 85.1133 274.043C84.3986 273.775 84.0412 272.988 84.3092 272.29C84.5594 271.574 85.3456 271.216 86.0604 271.484Z" fill="#02DBF3"/>
<path d="M122.908 266.76C123.605 267.028 123.98 267.815 123.712 268.513C123.444 269.211 122.658 269.569 121.961 269.319C121.246 269.05 120.889 268.263 121.157 267.565C121.407 266.849 122.193 266.491 122.908 266.76Z" fill="#02DBF3"/>
<path d="M112.615 250.778C113.848 251.244 114.491 252.622 114.026 253.857C113.562 255.091 112.186 255.718 110.953 255.27C109.72 254.805 109.094 253.427 109.559 252.192C110.023 250.957 111.382 250.313 112.615 250.778Z" fill="#02DBF3"/>
<path d="M93.512 261.48C94.0838 261.695 94.3697 262.321 94.1553 262.894C93.9408 263.449 93.3154 263.753 92.7436 263.538C92.1717 263.324 91.8858 262.697 92.1002 262.124C92.3326 261.552 92.958 261.265 93.512 261.48Z" fill="#02DBF3"/>
<path d="M63.2408 288.002C64.2237 288.002 65.0278 288.79 65.0278 289.774C65.0278 290.758 64.2415 291.564 63.2587 291.582C62.2759 291.582 61.4717 290.794 61.4539 289.81C61.4539 288.826 62.258 288.02 63.2408 288.002Z" fill="#02DBF3"/>
<path d="M52.4476 287.841C53.0373 287.823 53.5198 288.307 53.5376 288.897C53.5376 289.488 53.073 289.971 52.4833 289.971C51.8936 289.989 51.4111 289.506 51.4111 288.915C51.3933 288.325 51.8579 287.841 52.4476 287.841Z" fill="#02DBF3"/>
<path d="M78.037 274.079C78.6267 274.079 79.1092 274.545 79.1092 275.135C79.1092 275.726 78.6446 276.209 78.0549 276.209C77.4473 276.209 76.9827 275.744 76.9648 275.135C76.9648 274.562 77.4473 274.079 78.037 274.079Z" fill="#02DBF3"/>
<path d="M66.0821 265.292C67.1185 265.292 67.9584 266.115 67.9763 267.153C67.9941 268.191 67.1542 269.033 66.1178 269.033C65.0814 269.05 64.2415 268.209 64.2415 267.171C64.2236 266.133 65.0456 265.292 66.0821 265.292Z" fill="#02DBF3"/>
<path d="M55.11 278.446C55.5925 278.446 55.9677 278.822 55.9677 279.287C55.9856 279.77 55.5925 280.146 55.1279 280.164C54.6632 280.164 54.288 279.788 54.2701 279.305C54.2522 278.84 54.6454 278.446 55.11 278.446Z" fill="#02DBF3"/>
<path d="M56.1647 217.975C57.1475 217.957 57.9516 218.762 57.9516 219.746C57.9695 220.731 57.1654 221.536 56.1825 221.554C55.1997 221.554 54.3956 220.766 54.3777 219.782C54.3956 218.798 55.1818 217.992 56.1647 217.975Z" fill="#02DBF3"/>
<path d="M45.3536 217.813C45.9433 217.796 46.4258 218.279 46.4436 218.869C46.4436 219.46 45.979 219.943 45.3893 219.943C44.7996 219.943 44.3171 219.478 44.3171 218.869C44.2993 218.297 44.7817 217.813 45.3536 217.813Z" fill="#02DBF3"/>
<path d="M70.9606 204.052C71.5503 204.034 72.0328 204.517 72.0328 205.108C72.0507 205.698 71.5682 206.181 70.9785 206.181C70.3888 206.181 69.9063 205.716 69.8884 205.125C69.8884 204.535 70.353 204.052 70.9606 204.052Z" fill="#02DBF3"/>
<path d="M59.0054 195.265C60.0419 195.247 60.8639 196.088 60.8817 197.108C60.8817 198.146 60.0597 198.987 59.0233 199.005C57.9868 199.005 57.147 198.182 57.147 197.144C57.147 196.106 57.969 195.265 59.0054 195.265Z" fill="#02DBF3"/>
<path d="M48.0336 208.418C48.5161 208.418 48.8913 208.794 48.8913 209.277C48.9092 209.742 48.5161 210.136 48.0515 210.136C47.569 210.136 47.1937 209.76 47.1937 209.277C47.1759 208.794 47.5511 208.418 48.0336 208.418Z" fill="#02DBF3"/>
<path d="M52.7874 147.07C53.4129 147.822 53.3235 148.949 52.5551 149.576C51.8046 150.202 50.6788 150.095 50.0534 149.343C49.4279 148.591 49.5173 147.482 50.2857 146.838C51.0362 146.211 52.162 146.301 52.7874 147.07Z" fill="#02DBF3"/>
<path d="M46.0681 138.605C46.4433 139.053 46.3897 139.733 45.9251 140.109C45.4784 140.485 44.7993 140.431 44.4241 139.983C44.0488 139.536 44.1024 138.856 44.567 138.48C45.0138 138.104 45.6928 138.158 46.0681 138.605Z" fill="#02DBF3"/>
<path d="M72.9263 149.665C73.3015 150.13 73.2479 150.793 72.7833 151.168C72.3366 151.544 71.6575 151.49 71.3001 151.025C70.9249 150.578 70.9785 149.898 71.4252 149.522C71.8898 149.164 72.551 149.218 72.9263 149.665Z" fill="#02DBF3"/>
<path d="M72.1218 134.847C72.8008 135.635 72.6758 136.816 71.9074 137.478C71.1032 138.14 69.9417 138.033 69.2805 137.227C68.6193 136.44 68.7266 135.259 69.5128 134.597C70.2812 133.952 71.4606 134.06 72.1218 134.847Z" fill="#02DBF3"/>
<path d="M55.0208 134.704C55.3246 135.062 55.271 135.599 54.9136 135.921C54.5562 136.225 54.0201 136.172 53.6985 135.814C53.3947 135.438 53.4483 134.919 53.8057 134.597C54.181 134.292 54.717 134.346 55.0208 134.704Z" fill="#02DBF3"/>
<path d="M56.1826 85.0962C56.808 85.8478 56.7186 86.9753 55.9502 87.6016C55.1997 88.2459 54.0739 88.1385 53.4485 87.3869C52.8231 86.6352 52.9124 85.5078 53.6629 84.8635C54.4313 84.255 55.5571 84.3445 56.1826 85.0962Z" fill="#02DBF3"/>
<path d="M49.4634 76.6494C49.8387 77.0968 49.7851 77.7768 49.3204 78.1526C48.8737 78.5285 48.1947 78.4748 47.8194 78.0274C47.4441 77.5621 47.5156 76.8999 47.9623 76.5241C48.427 76.1304 49.0881 76.1841 49.4634 76.6494Z" fill="#02DBF3"/>
<path d="M76.3217 87.7269C76.697 88.1743 76.6434 88.8543 76.1788 89.2302C75.732 89.606 75.053 89.5523 74.6777 89.1049C74.3025 88.6575 74.3561 87.9774 74.8207 87.6016C75.2674 87.2079 75.9465 87.2616 76.3217 87.7269Z" fill="#02DBF3"/>
<path d="M75.5173 72.891C76.1785 73.6784 76.0713 74.8595 75.285 75.5217C74.4988 76.1839 73.3194 76.0765 72.6582 75.289C71.997 74.5016 72.1042 73.3205 72.8905 72.6583C73.6768 71.9783 74.8562 72.1035 75.5173 72.891Z" fill="#02DBF3"/>
<path d="M58.4161 72.7478C58.7199 73.1057 58.6663 73.6426 58.3089 73.9468C57.9515 74.2511 57.3975 74.1974 57.0937 73.8395C56.79 73.4815 56.8436 72.9447 57.201 72.6404C57.5583 72.3362 58.1123 72.3899 58.4161 72.7478Z" fill="#02DBF3"/>
<path d="M80.2887 50.1807C79.967 51.4513 78.6983 52.203 77.4295 51.8987C76.1787 51.5766 75.4103 50.306 75.714 49.0354C76.0357 47.7647 77.3044 46.9952 78.5732 47.3173C79.8419 47.6395 80.6103 48.928 80.2887 50.1807Z" fill="#02DBF3"/>
<path d="M84.0949 36.4187C83.8983 37.1882 83.1478 37.6535 82.3794 37.4567C81.6289 37.2598 81.1643 36.4903 81.3608 35.7386C81.5574 34.987 82.3258 34.5217 83.0763 34.7007C83.8268 34.8796 84.2914 35.6492 84.0949 36.4187Z" fill="#02DBF3"/>
<path d="M93.1547 73.7858C92.9581 74.5553 92.2076 75.0027 91.4392 74.8237C90.6708 74.6269 90.2241 73.8573 90.4028 73.1057C90.5993 72.3362 91.3498 71.8888 92.1182 72.0677C92.9045 72.2467 93.3512 73.0162 93.1547 73.7858Z" fill="#02DBF3"/>
<path d="M108.38 61.3838C108.04 62.7081 106.718 63.5134 105.377 63.1734C104.055 62.8513 103.251 61.5091 103.59 60.1848C103.912 58.8605 105.252 58.0551 106.575 58.3952C107.915 58.7173 108.701 60.0595 108.38 61.3838Z" fill="#02DBF3"/>
<path d="M95.2277 42.9508C95.0669 43.5593 94.4593 43.9351 93.8517 43.7741C93.2441 43.613 92.8689 43.0045 93.0297 42.3961C93.1727 41.7876 93.7802 41.4297 94.3878 41.5728C95.0132 41.7339 95.3706 42.3424 95.2277 42.9508Z" fill="#02DBF3"/>
<path d="M158.147 54.1357C157.825 55.3885 156.539 56.1759 155.288 55.8538C154.037 55.5316 153.268 54.261 153.572 52.9904C153.876 51.7377 155.163 50.9681 156.431 51.2724C157.7 51.5766 158.468 52.8651 158.147 54.1357Z" fill="#02DBF3"/>
<path d="M161.953 40.3558C161.757 41.1074 161.006 41.5727 160.238 41.3759C159.469 41.179 159.023 40.4095 159.201 39.6578C159.398 38.8883 160.148 38.4409 160.917 38.6199C161.685 38.8346 162.15 39.6041 161.953 40.3558Z" fill="#02DBF3"/>
<path d="M171.031 77.723C170.834 78.4746 170.066 78.9399 169.315 78.761C168.565 78.5641 168.1 77.7946 168.297 77.043C168.493 76.2913 169.244 75.826 170.012 76.0229C170.745 76.2018 171.21 76.9714 171.031 77.723Z" fill="#02DBF3"/>
<path d="M186.238 65.3389C185.898 66.6632 184.558 67.4685 183.236 67.1464C181.913 66.8063 181.109 65.4641 181.449 64.1577C181.77 62.8334 183.128 62.0281 184.433 62.3502C185.755 62.6723 186.559 63.9966 186.238 65.3389Z" fill="#02DBF3"/>
<path d="M173.068 46.9059C172.925 47.5144 172.299 47.8723 171.692 47.7291C171.084 47.586 170.727 46.9596 170.87 46.3511C171.031 45.7427 171.638 45.3847 172.246 45.5279C172.853 45.6711 173.229 46.2974 173.068 46.9059Z" fill="#02DBF3"/>
<path d="M242.884 69.9741C244.171 69.7772 245.368 70.672 245.547 71.9605C245.725 73.249 244.85 74.4481 243.545 74.6271C242.259 74.8239 241.061 73.9291 240.865 72.6227C240.704 71.37 241.598 70.1709 242.884 69.9741Z" fill="#02DBF3"/>
<path d="M228.714 71.6742C229.482 71.5668 230.197 72.1037 230.304 72.8732C230.429 73.6428 229.876 74.3765 229.125 74.4839C228.339 74.5913 227.624 74.0544 227.517 73.2848C227.409 72.5153 227.928 71.7816 228.714 71.6742Z" fill="#02DBF3"/>
<path d="M259.789 49.0892C260.557 48.9639 261.272 49.5008 261.379 50.2882C261.487 51.0578 260.951 51.7736 260.182 51.881C259.414 51.9884 258.699 51.4515 258.574 50.6819C258.485 49.9124 259.021 49.1966 259.789 49.0892Z" fill="#02DBF3"/>
<path d="M242.545 39.6938C243.903 39.497 245.154 40.4455 245.333 41.7877C245.547 43.1478 244.6 44.3826 243.26 44.5795C241.902 44.7763 240.651 43.8457 240.454 42.4856C240.276 41.1434 241.205 39.8907 242.545 39.6938Z" fill="#02DBF3"/>
<path d="M230.519 58.8964C231.144 58.807 231.716 59.2365 231.806 59.8449C231.895 60.4713 231.466 61.044 230.841 61.1335C230.233 61.2229 229.661 60.7934 229.572 60.1671C229.482 59.5586 229.911 58.968 230.519 58.8964Z" fill="#02DBF3"/>
<path d="M288.506 60.7035C289.524 60.5604 290.472 61.2583 290.615 62.2784C290.757 63.2985 290.061 64.247 289.042 64.3901C288.023 64.5333 287.076 63.8354 286.933 62.8153C286.79 61.8131 287.487 60.8646 288.506 60.7035Z" fill="#02DBF3"/>
<path d="M277.302 62.0638C277.909 61.9743 278.481 62.4038 278.57 63.0123C278.66 63.6208 278.231 64.1934 277.623 64.2829C277.016 64.3724 276.444 63.9429 276.355 63.3344C276.265 62.7081 276.694 62.1533 277.302 62.0638Z" fill="#02DBF3"/>
<path d="M301.872 44.1855C302.48 44.0961 303.052 44.5077 303.141 45.134C303.231 45.7425 302.802 46.2973 302.194 46.3868C301.587 46.4762 301.015 46.0467 300.925 45.4562C300.836 44.8477 301.265 44.275 301.872 44.1855Z" fill="#02DBF3"/>
<path d="M288.256 36.7586C289.31 36.6154 290.311 37.3491 290.454 38.405C290.615 39.4788 289.864 40.4631 288.81 40.6241C287.755 40.7852 286.773 40.0336 286.612 38.9777C286.433 37.9039 287.184 36.9196 288.256 36.7586Z" fill="#02DBF3"/>
<path d="M278.731 51.9524C279.214 51.8808 279.66 52.2208 279.75 52.704C279.821 53.1872 279.482 53.6525 278.981 53.7241C278.499 53.7957 278.052 53.4557 277.963 52.9725C277.909 52.4714 278.249 52.024 278.731 51.9524Z" fill="#02DBF3"/>
<path d="M289.238 112.871C290.257 112.727 291.204 113.425 291.347 114.446C291.49 115.466 290.793 116.414 289.774 116.557C288.774 116.7 287.809 116.002 287.666 114.982C287.523 113.962 288.22 113.014 289.238 112.871Z" fill="#02DBF3"/>
<path d="M278.034 114.213C278.642 114.124 279.213 114.553 279.303 115.162C279.392 115.77 278.963 116.343 278.356 116.432C277.748 116.522 277.176 116.092 277.087 115.484C276.998 114.875 277.426 114.303 278.034 114.213Z" fill="#02DBF3"/>
<path d="M302.605 96.3349C303.212 96.2454 303.766 96.6749 303.856 97.2834C303.945 97.8919 303.516 98.4646 302.909 98.554C302.301 98.6435 301.729 98.214 301.64 97.6055C301.568 96.9971 301.997 96.4423 302.605 96.3349Z" fill="#02DBF3"/>
<path d="M288.988 88.9258C290.043 88.7647 291.043 89.5164 291.186 90.5723C291.347 91.646 290.614 92.6482 289.542 92.7914C288.47 92.9524 287.487 92.2187 287.326 91.1449C287.183 90.0712 287.916 89.0869 288.988 88.9258Z" fill="#02DBF3"/>
<path d="M279.464 104.102C279.946 104.03 280.393 104.37 280.482 104.853C280.554 105.354 280.214 105.802 279.732 105.873C279.249 105.945 278.785 105.605 278.713 105.122C278.642 104.621 278.963 104.173 279.464 104.102Z" fill="#02DBF3"/>
<path d="M285.664 171.391C286.683 171.248 287.63 171.946 287.773 172.966C287.916 173.986 287.219 174.935 286.2 175.078C285.182 175.221 284.235 174.505 284.092 173.503C283.949 172.501 284.646 171.552 285.664 171.391Z" fill="#02DBF3"/>
<path d="M274.46 172.751C275.067 172.662 275.639 173.091 275.728 173.7C275.818 174.308 275.389 174.881 274.781 174.97C274.156 175.06 273.602 174.63 273.513 174.022C273.423 173.396 273.852 172.841 274.46 172.751Z" fill="#02DBF3"/>
<path d="M299.03 154.873C299.638 154.784 300.21 155.195 300.299 155.822C300.389 156.43 299.96 157.003 299.352 157.092C298.745 157.182 298.173 156.752 298.083 156.144C297.994 155.535 298.423 154.963 299.03 154.873Z" fill="#02DBF3"/>
<path d="M285.414 147.446C286.486 147.285 287.469 148.037 287.63 149.111C287.79 150.167 287.04 151.169 285.986 151.33C284.913 151.473 283.931 150.739 283.77 149.665C283.609 148.61 284.342 147.607 285.414 147.446Z" fill="#02DBF3"/>
<path d="M275.889 162.64C276.372 162.568 276.837 162.908 276.908 163.41C276.979 163.893 276.64 164.34 276.157 164.412C275.675 164.483 275.21 164.143 275.139 163.66C275.067 163.159 275.407 162.712 275.889 162.64Z" fill="#02DBF3"/>
<path d="M276.051 219.782C276.676 220.874 276.301 222.27 275.229 222.896C274.138 223.523 272.745 223.165 272.119 222.073C271.494 220.981 271.869 219.586 272.959 218.959C274.049 218.333 275.425 218.709 276.051 219.782Z" fill="#02DBF3"/>
<path d="M269.457 207.649C269.832 208.293 269.618 209.134 268.956 209.528C268.295 209.904 267.473 209.671 267.098 209.027C266.723 208.365 266.937 207.541 267.598 207.166C268.26 206.772 269.099 207.005 269.457 207.649Z" fill="#02DBF3"/>
<path d="M300.854 227.531C301.229 228.176 301.015 229.017 300.354 229.393C299.693 229.768 298.871 229.554 298.495 228.891C298.12 228.229 298.352 227.406 298.996 227.03C299.657 226.654 300.479 226.887 300.854 227.531Z" fill="#02DBF3"/>
<path d="M303.123 208.669C303.785 209.814 303.391 211.264 302.248 211.926C301.104 212.588 299.657 212.194 298.995 211.049C298.316 209.904 298.727 208.454 299.871 207.792C301.015 207.13 302.462 207.524 303.123 208.669Z" fill="#02DBF3"/>
<path d="M281.59 204.696C281.894 205.215 281.716 205.895 281.197 206.199C280.679 206.503 280 206.324 279.714 205.805C279.41 205.269 279.589 204.606 280.107 204.302C280.626 203.998 281.305 204.177 281.59 204.696Z" fill="#02DBF3"/>
<path d="M107.433 55.3528C107.433 55.3528 107.701 55.5496 108.201 55.9613C108.701 56.355 109.47 56.9276 110.363 57.6793C111.275 58.4309 112.4 59.3436 113.616 60.4174C114.849 61.4911 116.224 62.7081 117.672 64.0861C119.119 65.4462 120.692 66.9137 122.264 68.5422C123.855 70.135 125.535 71.8351 127.179 73.6247C128.823 75.4322 130.556 77.2934 132.182 79.2441C133.826 81.1769 135.488 83.1633 137.114 85.1677C138.705 87.19 140.277 89.2122 141.778 91.2345C143.297 93.2389 144.691 95.279 146.049 97.2297C147.425 99.1804 148.676 101.113 149.837 102.939C151.035 104.764 152.089 106.5 153.054 108.128C154.037 109.739 154.877 111.242 155.627 112.585C156.378 113.927 156.985 115.108 157.486 116.056C158.004 117.023 158.361 117.792 158.629 118.311C158.879 118.848 159.022 119.117 159.022 119.117C159.022 119.117 158.808 118.866 158.415 118.383C158.022 117.9 157.45 117.22 156.717 116.325C156.002 115.43 155.109 114.356 154.126 113.121C153.125 111.869 152 110.491 150.802 108.952C149.569 107.43 148.247 105.784 146.889 104.048C145.495 102.294 144.012 100.487 142.529 98.6077C141.028 96.7107 139.419 94.7958 137.847 92.8272C136.256 90.8587 134.648 88.8543 133.022 86.8857C131.414 84.8814 129.805 82.9128 128.179 80.98C126.553 79.0472 125.034 77.1145 123.497 75.2891C121.943 73.4636 120.513 71.674 119.119 69.9918C117.708 68.3096 116.439 66.7168 115.224 65.2493C114.009 63.7819 112.936 62.4218 111.972 61.2406C111.007 60.0416 110.202 58.9857 109.505 58.1267C108.809 57.2677 108.326 56.5876 107.951 56.1223C107.629 55.6033 107.433 55.3528 107.433 55.3528Z" fill="#F5E400"/>
<path d="M172.085 53.5453C172.085 53.5453 172.085 53.9032 172.085 54.5833C172.085 55.2454 172.12 56.2476 172.085 57.5182C172.049 60.0416 172.067 63.6387 171.96 67.9696C171.906 70.135 171.835 72.4794 171.781 74.949C171.692 77.4187 171.62 80.0494 171.531 82.7517C171.424 85.4541 171.316 88.228 171.209 91.0734C171.084 93.9189 170.941 96.8002 170.816 99.6815C170.673 102.563 170.512 105.444 170.369 108.272C170.244 111.117 170.048 113.891 169.905 116.593C169.601 121.998 169.261 127.045 168.975 131.358C168.672 135.688 168.368 139.268 168.189 141.791C168.1 143.044 167.993 144.046 167.957 144.708C167.885 145.388 167.867 145.746 167.867 145.746C167.867 145.746 167.867 145.388 167.85 144.708C167.85 144.028 167.814 143.044 167.814 141.791C167.814 139.268 167.76 135.653 167.814 131.34C167.832 127.009 167.921 121.962 168.046 116.575C168.136 113.873 168.171 111.081 168.296 108.236C168.404 105.408 168.511 102.527 168.618 99.6278C168.761 96.7465 168.904 93.8652 169.047 91.0376C169.208 88.2101 169.369 85.4183 169.529 82.716C169.708 80.0136 169.887 77.4008 170.065 74.9311C170.262 72.4615 170.459 70.1171 170.637 67.9696C170.995 63.6387 171.406 60.0595 171.656 57.5361C171.781 56.2834 171.924 55.2812 171.995 54.6191C172.049 53.9032 172.085 53.5453 172.085 53.5453Z" fill="#009CB1"/>
<path d="M231.376 50.6818C231.376 50.6818 231.269 50.8607 231.055 51.2008C230.822 51.5408 230.519 52.024 230.09 52.6503C229.25 53.8852 227.981 55.6211 226.409 57.6791C224.836 59.7372 222.924 62.1174 220.833 64.6586C219.779 65.9293 218.689 67.2357 217.563 68.56C216.455 69.8843 215.276 71.2265 214.132 72.5866C212.953 73.9288 211.791 75.271 210.612 76.5953C209.45 77.9196 208.289 79.2261 207.163 80.4788C204.894 83.0021 202.731 85.3465 200.837 87.333C198.943 89.3374 197.335 91.0017 196.155 92.1471C195.583 92.7376 195.101 93.185 194.797 93.4893C194.476 93.7935 194.297 93.9546 194.297 93.9546C194.297 93.9546 194.386 93.7577 194.547 93.3998C194.726 93.0419 194.958 92.5229 195.333 91.8607C196.012 90.5185 197.067 88.6573 198.425 86.4382C199.783 84.237 201.463 81.6957 203.41 79.0292C204.375 77.687 205.394 76.3269 206.466 74.9489C207.538 73.5709 208.682 72.2108 209.826 70.8328C210.987 69.4727 212.167 68.1305 213.364 66.8241C214.561 65.4997 215.776 64.247 216.973 63.0301C219.368 60.5783 221.745 58.3771 223.871 56.5517C225.998 54.7084 227.856 53.2409 229.232 52.2387C229.893 51.7376 230.447 51.3439 230.822 51.0755C231.18 50.8249 231.376 50.6818 231.376 50.6818Z" fill="#F5E400"/>
<path d="M239.579 83.3779C239.579 83.3779 239.364 83.5748 238.935 83.9327C238.489 84.2906 237.881 84.8275 237.059 85.4897C235.433 86.8319 233.074 88.7289 230.233 91.0196C227.374 93.3103 224.032 95.9947 220.458 98.8939C218.671 100.343 216.831 101.847 214.954 103.386C213.078 104.925 211.184 106.5 209.29 108.092C207.377 109.667 205.519 111.278 203.661 112.871C201.82 114.463 199.997 116.02 198.246 117.56C194.726 120.62 191.473 123.519 188.686 126.006C185.88 128.494 183.557 130.606 181.895 132.073C181.073 132.807 180.412 133.38 179.965 133.773C179.537 134.167 179.286 134.382 179.286 134.382C179.286 134.382 179.465 134.149 179.787 133.702C180.108 133.236 180.573 132.574 181.216 131.751C182.467 130.087 184.326 127.742 186.667 125.004C189.025 122.284 191.867 119.134 195.101 115.913C196.727 114.302 198.425 112.638 200.194 110.992C201.963 109.327 203.821 107.699 205.698 106.088C207.592 104.477 209.504 102.885 211.434 101.364C213.364 99.8424 215.312 98.3749 217.224 96.979C221.048 94.2051 224.783 91.7354 228.088 89.6953C231.394 87.673 234.271 86.0981 236.326 85.0244C237.345 84.4875 238.167 84.0759 238.721 83.7895C239.275 83.5032 239.579 83.3779 239.579 83.3779Z" fill="#74A32D"/>
<path d="M293.17 91.4491C293.17 91.4491 292.884 91.5386 292.33 91.6996C291.776 91.8607 290.954 92.0934 289.917 92.3797C287.827 92.9703 284.824 93.7935 281.215 94.8136C277.605 95.8158 273.37 97.0148 268.831 98.357C266.562 99.037 264.239 99.735 261.862 100.487C259.503 101.238 257.091 102.008 254.696 102.795C252.284 103.565 249.907 104.406 247.548 105.211C245.207 106.034 242.884 106.858 240.651 107.663C236.201 109.292 232.038 110.866 228.464 112.244C224.89 113.622 221.923 114.804 219.815 115.627C218.778 116.056 217.938 116.36 217.367 116.593C216.795 116.808 216.509 116.933 216.509 116.933C216.509 116.933 216.741 116.772 217.206 116.45C217.67 116.146 218.349 115.68 219.243 115.144C220.994 114.016 223.567 112.477 226.766 110.741C229.965 109.005 233.807 107.09 238.042 105.229C240.168 104.299 242.402 103.368 244.689 102.473C246.977 101.578 249.371 100.719 251.766 99.8782C254.178 99.0728 256.608 98.2854 259.039 97.5875C261.469 96.8716 263.899 96.2274 266.258 95.6547C271.011 94.4914 275.568 93.5966 279.553 92.9703C283.538 92.3439 286.951 91.9681 289.363 91.7533C290.561 91.6281 291.543 91.5923 292.187 91.5386C292.83 91.467 293.17 91.4491 293.17 91.4491Z" fill="#F5E400"/>
<path d="M332 148.377C332 148.377 331.589 148.269 330.821 148.09C330.052 147.893 328.926 147.643 327.479 147.285C326.032 146.945 324.298 146.533 322.279 146.086C320.278 145.638 318.008 145.155 315.542 144.636C313.076 144.117 310.413 143.598 307.59 143.079C304.767 142.56 301.8 142.077 298.727 141.576C295.635 141.093 292.49 140.681 289.274 140.27C286.057 139.84 282.805 139.5 279.553 139.214C276.3 138.91 273.066 138.677 269.867 138.48C266.686 138.301 263.541 138.122 260.521 138.051C257.501 137.979 254.589 137.907 251.819 137.907C249.067 137.907 246.458 137.925 244.063 137.979C241.669 138.033 239.471 138.086 237.523 138.176C235.575 138.265 233.878 138.337 232.484 138.391C231.09 138.48 229.982 138.516 229.232 138.57C228.481 138.605 228.07 138.623 228.07 138.623C228.07 138.623 228.445 138.552 229.142 138.391C229.839 138.247 230.858 138.033 232.162 137.8C233.485 137.567 235.075 137.281 236.933 137.013C238.792 136.744 240.883 136.458 243.206 136.207C245.529 135.957 248.048 135.724 250.747 135.581C253.445 135.42 256.286 135.277 259.288 135.259C262.29 135.223 265.382 135.223 268.563 135.348C271.743 135.456 274.978 135.652 278.248 135.939C281.536 136.243 284.824 136.619 288.076 137.048C291.329 137.46 294.563 138.033 297.69 138.605C300.8 139.16 303.873 139.84 306.75 140.52C309.645 141.182 312.379 141.934 314.917 142.65C317.454 143.348 319.795 144.082 321.886 144.762C323.959 145.424 325.781 146.068 327.265 146.605C328.766 147.142 329.945 147.607 330.749 147.911C331.571 148.198 332 148.377 332 148.377Z" fill="#74A32D"/>
<path d="M198.961 155.428C198.961 155.428 199.39 155.321 200.212 155.106C201.034 154.909 202.213 154.623 203.75 154.3C205.287 153.978 207.163 153.585 209.325 153.209C211.488 152.815 213.936 152.421 216.652 152.063C219.35 151.688 222.299 151.365 225.444 151.115C228.589 150.864 231.93 150.632 235.415 150.56C238.9 150.471 242.509 150.417 246.208 150.542C249.907 150.65 253.696 150.864 257.484 151.169C261.29 151.509 265.114 151.956 268.903 152.475C272.673 152.994 276.426 153.692 280.036 154.408C283.645 155.124 287.166 155.965 290.507 156.824C293.849 157.665 297.012 158.595 299.942 159.508C302.873 160.403 305.553 161.316 307.93 162.175C310.307 163.016 312.398 163.821 314.113 164.501C315.828 165.181 317.169 165.754 318.098 166.13C319.009 166.523 319.51 166.738 319.51 166.738C319.51 166.738 319.027 166.595 318.134 166.327C317.24 166.058 315.918 165.664 314.22 165.163C312.54 164.68 310.503 164.108 308.162 163.445C305.821 162.801 303.177 162.121 300.3 161.405C297.423 160.689 294.313 159.991 291.025 159.276C287.737 158.56 284.271 157.915 280.697 157.271C277.123 156.627 273.442 156.09 269.689 155.571C265.936 155.052 262.148 154.64 258.378 154.318C254.589 153.96 250.837 153.71 247.138 153.531C243.456 153.388 239.811 153.245 236.326 153.227C232.824 153.227 229.447 153.245 226.284 153.334C223.103 153.441 220.101 153.585 217.331 153.746C214.579 153.925 212.042 154.104 209.808 154.3C207.574 154.515 205.626 154.694 204.018 154.855C202.428 155.034 201.159 155.159 200.301 155.249C199.426 155.356 198.961 155.428 198.961 155.428Z" fill="#F5E400"/>
<path d="M188.954 162.282C188.954 162.282 189.4 162.336 190.276 162.443C191.134 162.551 192.42 162.712 194.029 162.944C197.245 163.445 201.856 164.161 207.341 165.36C210.076 165.951 213.042 166.667 216.169 167.49C219.278 168.313 222.549 169.262 225.926 170.317C229.285 171.391 232.752 172.59 236.255 173.897C239.739 175.203 243.277 176.635 246.78 178.156C250.264 179.695 253.749 181.306 257.144 182.988C260.539 184.67 263.845 186.442 267.026 188.214C273.37 191.775 279.195 195.444 284.092 198.79C289.006 202.119 292.991 205.143 295.778 207.291C297.172 208.365 298.244 209.242 298.977 209.832C299.71 210.441 300.103 210.745 300.103 210.745C300.103 210.745 299.692 210.441 298.923 209.904C298.173 209.349 297.065 208.561 295.635 207.541C292.794 205.501 288.702 202.692 283.734 199.506C278.767 196.321 272.905 192.795 266.526 189.341C263.345 187.605 260.021 185.905 256.644 184.241C253.249 182.576 249.8 180.984 246.297 179.48C242.813 177.959 239.31 176.527 235.844 175.203C232.359 173.861 228.928 172.644 225.586 171.534C222.245 170.407 219.01 169.405 215.901 168.528C212.81 167.615 209.897 166.846 207.163 166.166C201.748 164.805 197.174 163.821 193.975 163.231C192.367 162.908 191.116 162.676 190.258 162.515C189.418 162.372 188.954 162.282 188.954 162.282Z" fill="#F5E400"/>
<path d="M242.598 165.396C242.598 165.396 242.849 165.414 243.349 165.503C243.831 165.575 244.546 165.682 245.475 165.843C247.316 166.148 249.925 166.667 253.07 167.4C256.215 168.152 259.86 169.154 263.756 170.407C265.704 171.033 267.723 171.731 269.76 172.483C271.797 173.217 273.87 174.04 275.925 174.881C277.998 175.74 280.053 176.617 282.055 177.547C284.074 178.478 286.04 179.427 287.934 180.393C291.758 182.326 295.278 184.294 298.262 186.084C301.247 187.874 303.713 189.502 305.428 190.665C306.286 191.238 306.947 191.721 307.394 192.043C307.841 192.365 308.091 192.544 308.091 192.544C308.091 192.544 307.841 192.419 307.358 192.204C306.876 191.972 306.179 191.65 305.285 191.22C303.48 190.361 300.943 189.144 297.887 187.695C294.831 186.263 291.257 184.599 287.451 182.898C285.539 182.039 283.556 181.18 281.554 180.303C279.553 179.444 277.498 178.568 275.461 177.726C273.424 176.867 271.369 176.062 269.349 175.257C267.348 174.451 265.364 173.682 263.434 172.966C259.575 171.499 255.983 170.192 252.891 169.083C249.8 167.973 247.227 167.078 245.404 166.434C244.493 166.13 243.796 165.861 243.313 165.682C242.849 165.485 242.598 165.396 242.598 165.396Z" fill="#74A32D"/>
<path d="M197.495 173.521C197.495 173.521 197.835 173.592 198.478 173.753C199.122 173.914 200.051 174.129 201.248 174.451C203.625 175.078 206.984 176.044 210.969 177.404C214.954 178.764 219.547 180.518 224.371 182.63C226.784 183.686 229.25 184.831 231.734 186.066C234.217 187.301 236.719 188.607 239.203 189.967C241.669 191.345 244.117 192.759 246.494 194.209C248.871 195.658 251.194 197.161 253.41 198.647C257.823 201.635 261.844 204.624 265.203 207.308C268.563 209.993 271.297 212.355 273.155 214.055C274.103 214.896 274.817 215.594 275.318 216.042C275.8 216.507 276.068 216.758 276.068 216.758C276.068 216.758 275.764 216.561 275.21 216.167C274.674 215.773 273.852 215.201 272.816 214.485C270.743 213.035 267.812 210.977 264.274 208.597C260.718 206.217 256.555 203.497 252.051 200.723C249.8 199.327 247.459 197.931 245.082 196.535C242.688 195.139 240.257 193.761 237.791 192.401C235.343 191.041 232.859 189.735 230.429 188.482C227.981 187.229 225.569 186.012 223.228 184.885C218.528 182.612 214.078 180.59 210.272 178.925C206.448 177.261 203.249 175.937 200.998 175.006C199.872 174.559 198.996 174.183 198.407 173.932C197.817 173.646 197.495 173.521 197.495 173.521Z" fill="#74A32D"/>
<path d="M228.982 193.94C228.982 193.94 229.268 194.083 229.804 194.37C230.34 194.656 231.144 195.05 232.145 195.622C234.146 196.714 236.952 198.343 240.257 200.436C243.545 202.53 247.298 205.107 251.212 208.06C253.159 209.528 255.143 211.085 257.144 212.731C259.128 214.36 261.111 216.06 263.077 217.796C265.025 219.55 266.955 221.339 268.813 223.129C270.672 224.918 272.459 226.726 274.174 228.515C277.587 232.077 280.625 235.549 283.162 238.609C285.682 241.669 287.701 244.3 289.077 246.179C289.756 247.11 290.292 247.861 290.65 248.362C291.007 248.881 291.186 249.15 291.186 249.15C291.186 249.15 290.954 248.917 290.525 248.47C290.096 248.022 289.453 247.36 288.666 246.519C287.058 244.837 284.771 242.457 281.983 239.629C279.231 236.819 275.979 233.562 272.441 230.162C270.689 228.462 268.831 226.726 266.955 224.99C265.061 223.254 263.148 221.5 261.201 219.782C259.271 218.046 257.305 216.364 255.357 214.7C253.409 213.053 251.497 211.443 249.621 209.921C245.869 206.861 242.33 204.069 239.275 201.725C236.219 199.381 233.628 197.448 231.823 196.106C230.912 195.443 230.215 194.889 229.732 194.531C229.232 194.137 228.982 193.94 228.982 193.94Z" fill="#74A32D"/>
<path d="M203.214 183.74C203.214 183.74 203.518 183.954 204.107 184.366C204.679 184.777 205.555 185.368 206.609 186.155C208.736 187.73 211.773 189.967 215.276 192.831C217.009 194.262 218.886 195.837 220.833 197.537C222.781 199.238 224.783 201.063 226.82 202.996C228.839 204.929 230.93 206.951 232.967 209.063C235.022 211.156 237.059 213.34 239.06 215.541C241.044 217.76 243.01 219.997 244.868 222.252C246.762 224.489 248.531 226.744 250.247 228.927C253.642 233.312 256.644 237.535 259.11 241.204C261.594 244.873 263.506 248.004 264.846 250.206C265.507 251.297 266.008 252.174 266.347 252.765C266.705 253.373 266.866 253.678 266.866 253.678C266.866 253.678 266.669 253.373 266.294 252.801C265.901 252.228 265.329 251.387 264.614 250.331C263.167 248.183 261.04 245.159 258.431 241.598C255.822 238.018 252.695 233.902 249.21 229.571C247.495 227.406 245.636 225.205 243.76 223.004C241.866 220.767 239.918 218.547 237.899 216.364C235.915 214.163 233.896 211.997 231.859 209.886C229.822 207.792 227.803 205.734 225.801 203.801C223.818 201.85 221.852 199.989 219.976 198.253C218.099 196.517 216.312 194.889 214.633 193.421C211.273 190.451 208.432 188.052 206.395 186.388C205.376 185.565 204.59 184.903 204.054 184.473C203.5 183.972 203.214 183.74 203.214 183.74Z" fill="#009CB1"/>
<path d="M179.912 172.017C179.912 172.017 180.251 172.286 180.859 172.787C181.466 173.288 182.378 174.04 183.503 175.006C184.611 175.99 185.969 177.154 187.47 178.567C188.989 179.945 190.669 181.538 192.438 183.328C194.207 185.1 196.119 187.032 198.067 189.144C199.997 191.238 202.034 193.475 204.018 195.855C206.001 198.235 208.056 200.687 210.022 203.264C212.006 205.823 213.953 208.472 215.847 211.12C217.706 213.805 219.529 216.507 221.262 219.192C223.013 221.894 224.604 224.578 226.14 227.191C227.677 229.804 229.071 232.363 230.358 234.815C231.662 237.249 232.806 239.575 233.842 241.741C234.897 243.888 235.79 245.893 236.576 247.664C237.363 249.436 238.006 250.993 238.542 252.282C239.078 253.57 239.453 254.572 239.721 255.27C239.972 255.968 240.114 256.344 240.114 256.344C240.114 256.344 239.918 255.986 239.561 255.342C239.203 254.68 238.685 253.713 238.024 252.478C237.345 251.261 236.523 249.776 235.576 248.058C234.629 246.358 233.538 244.443 232.341 242.349C231.126 240.273 229.804 238.018 228.392 235.638C226.962 233.258 225.408 230.788 223.799 228.229C222.191 225.67 220.458 223.057 218.689 220.409C216.92 217.76 215.079 215.093 213.167 212.463C211.291 209.814 209.361 207.183 207.413 204.642C205.465 202.101 203.553 199.577 201.623 197.179C199.693 194.781 197.835 192.491 196.012 190.325C194.189 188.178 192.474 186.155 190.848 184.276C189.222 182.415 187.721 180.715 186.398 179.23C185.04 177.744 183.897 176.438 182.914 175.382C181.949 174.326 181.18 173.467 180.662 172.912C180.18 172.322 179.912 172.017 179.912 172.017Z" fill="#F5E400"/>
<path d="M174.157 173.288C174.157 173.288 174.336 173.592 174.694 174.147C175.033 174.72 175.551 175.525 176.159 176.599C176.766 177.655 177.535 178.925 178.339 180.429C179.161 181.914 180.072 183.596 181.002 185.457C181.949 187.301 182.967 189.323 183.968 191.47C184.969 193.618 186.041 195.891 187.024 198.253C188.024 200.633 189.097 203.067 190.061 205.59C191.044 208.096 192.009 210.655 192.938 213.214C193.85 215.791 194.725 218.368 195.53 220.927C196.369 223.469 197.084 225.992 197.799 228.426C198.514 230.86 199.121 233.222 199.693 235.477C200.283 237.732 200.783 239.862 201.23 241.83C201.677 243.799 202.052 245.606 202.374 247.217C202.695 248.81 202.945 250.223 203.16 251.387C203.374 252.55 203.517 253.463 203.607 254.089C203.696 254.715 203.75 255.037 203.75 255.037C203.75 255.037 203.642 254.715 203.446 254.107C203.267 253.498 202.963 252.621 202.624 251.494C202.266 250.367 201.82 249.006 201.337 247.432C200.837 245.857 200.265 244.103 199.657 242.17C199.032 240.237 198.335 238.143 197.62 235.942C196.888 233.723 196.084 231.415 195.297 228.999C194.493 226.6 193.6 224.113 192.724 221.59C191.831 219.066 190.919 216.507 189.972 213.948C189.043 211.389 188.114 208.83 187.149 206.324C186.184 203.819 185.272 201.349 184.325 198.969C183.378 196.589 182.503 194.28 181.645 192.097C180.769 189.931 179.947 187.855 179.197 185.958C178.428 184.061 177.749 182.308 177.124 180.769C176.498 179.229 175.98 177.869 175.533 176.76C175.087 175.65 174.765 174.773 174.533 174.165C174.283 173.61 174.157 173.288 174.157 173.288Z" fill="#009CB1"/>
<path d="M205.108 217.67C205.108 217.67 205.304 217.939 205.644 218.458C205.984 218.977 206.484 219.728 207.091 220.713C207.699 221.679 208.467 222.86 209.254 224.238C210.076 225.598 210.987 227.155 211.916 228.873C212.863 230.591 213.864 232.435 214.865 234.439C215.865 236.426 216.92 238.519 217.92 240.721C218.921 242.904 219.958 245.177 220.94 247.521C221.905 249.848 222.852 252.228 223.764 254.608C224.657 256.988 225.533 259.386 226.319 261.766C227.123 264.129 227.838 266.473 228.535 268.746C229.214 271.019 229.822 273.22 230.358 275.296C230.912 277.39 231.394 279.376 231.805 281.202C232.234 283.027 232.574 284.709 232.877 286.195C233.181 287.68 233.413 288.986 233.61 290.078C233.807 291.152 233.932 291.993 234.021 292.566C234.11 293.138 234.146 293.46 234.146 293.46C234.146 293.46 234.057 293.156 233.878 292.601C233.717 292.047 233.449 291.241 233.128 290.185C232.806 289.147 232.395 287.895 231.966 286.445C231.501 284.996 230.983 283.367 230.411 281.577C229.84 279.788 229.196 277.855 228.517 275.815C227.838 273.757 227.088 271.609 226.319 269.372C225.551 267.153 224.693 264.845 223.853 262.5C222.995 260.174 222.102 257.794 221.191 255.413C220.279 253.033 219.35 250.671 218.403 248.344C217.438 246.018 216.544 243.727 215.58 241.508C214.632 239.307 213.757 237.159 212.863 235.137C211.988 233.115 211.148 231.2 210.362 229.446C209.557 227.692 208.861 226.064 208.217 224.632C207.556 223.2 207.02 221.948 206.555 220.928C206.073 219.89 205.733 219.084 205.483 218.529C205.233 217.957 205.108 217.67 205.108 217.67Z" fill="#74A32D"/>
<path d="M178.84 221.053C178.84 221.053 178.947 221.464 179.161 222.234C179.376 223.004 179.697 224.149 180.073 225.581C180.805 228.48 181.913 232.596 183.057 237.571C183.629 240.059 184.236 242.761 184.844 245.624C185.434 248.488 186.059 251.512 186.684 254.626C187.292 257.758 187.917 260.979 188.489 264.272C189.061 267.565 189.633 270.911 190.169 274.258C190.687 277.605 191.188 280.969 191.67 284.262C192.152 287.555 192.563 290.812 192.957 293.962C193.743 300.261 194.386 306.131 194.833 311.178C195.315 316.224 195.601 320.43 195.834 323.365C195.941 324.832 195.994 325.996 196.048 326.801C196.102 327.588 196.12 328 196.12 328C196.12 328 196.066 327.588 195.959 326.801C195.852 326.014 195.673 324.886 195.494 323.419C195.119 320.502 194.511 316.332 193.814 311.303C193.1 306.292 192.242 300.44 191.313 294.176C190.848 291.045 190.312 287.805 189.812 284.512C189.293 281.22 188.757 277.873 188.203 274.526C187.667 271.18 187.113 267.851 186.541 264.558C185.97 261.265 185.433 258.044 184.88 254.894C184.343 251.763 183.807 248.738 183.289 245.857C182.789 242.994 182.306 240.273 181.842 237.768C180.93 232.775 180.216 228.587 179.679 225.652C179.411 224.203 179.215 223.039 179.09 222.27C178.911 221.464 178.84 221.053 178.84 221.053Z" fill="#74A32D"/>
<path d="M167.421 168.975C167.421 168.975 167.474 169.369 167.546 170.103C167.617 170.836 167.742 171.91 167.867 173.27C167.992 174.63 168.171 176.295 168.314 178.192C168.457 180.107 168.636 182.236 168.779 184.581C168.94 186.925 169.1 189.466 169.225 192.151C169.368 194.835 169.511 197.681 169.601 200.598C169.708 203.533 169.833 206.557 169.887 209.635C169.958 212.713 170.03 215.845 170.083 218.959C170.119 222.091 170.137 225.223 170.173 228.301C170.208 231.379 170.173 234.403 170.173 237.338C170.173 240.273 170.119 243.101 170.083 245.785C170.065 248.488 170.012 251.029 169.958 253.373C169.904 255.718 169.851 257.865 169.779 259.78C169.726 261.677 169.654 263.341 169.619 264.719C169.583 266.08 169.511 267.171 169.493 267.905C169.458 268.639 169.44 269.032 169.44 269.032C169.44 269.032 169.404 268.639 169.351 267.923C169.297 267.189 169.19 266.115 169.1 264.755C169.011 263.377 168.886 261.731 168.779 259.834C168.654 257.937 168.511 255.771 168.403 253.445C168.26 251.083 168.118 248.559 167.992 245.875C167.867 243.19 167.724 240.363 167.617 237.428C167.51 234.493 167.349 231.468 167.26 228.39C167.17 225.312 167.081 222.18 166.974 219.049C166.92 215.935 166.849 212.803 166.777 209.725C166.706 206.647 166.724 203.622 166.67 200.687C166.634 197.752 166.67 194.925 166.688 192.24C166.688 189.556 166.724 186.997 166.777 184.67C166.813 182.326 166.885 180.16 166.956 178.263C166.992 176.348 167.081 174.684 167.153 173.324C167.206 171.946 167.296 170.872 167.331 170.138C167.403 169.351 167.421 168.975 167.421 168.975Z" fill="#F5E400"/>
<path d="M160.666 188.106C160.666 188.106 160.666 188.249 160.684 188.518C160.702 188.786 160.738 189.198 160.755 189.717C160.809 190.737 160.809 192.204 160.791 193.958C160.756 195.712 160.648 197.752 160.452 199.917C160.362 201.009 160.255 202.137 160.112 203.282C160.005 204.409 159.862 205.59 159.701 206.736C159.54 207.899 159.397 209.044 159.201 210.19C159.022 211.317 158.826 212.445 158.647 213.518C158.272 215.684 157.843 217.706 157.45 219.424C157.039 221.16 156.663 222.592 156.395 223.594C156.252 224.095 156.127 224.489 156.038 224.757C155.949 225.026 155.913 225.169 155.913 225.169C155.913 225.169 155.895 225.008 155.859 224.739C155.841 224.471 155.806 224.059 155.77 223.54C155.698 222.52 155.663 221.053 155.645 219.299C155.645 217.545 155.698 215.505 155.823 213.322C155.895 212.23 155.966 211.102 156.074 209.957C156.181 208.812 156.306 207.649 156.449 206.485C156.592 205.322 156.735 204.159 156.931 203.031C157.092 201.904 157.289 200.776 157.503 199.685C157.896 197.519 158.361 195.497 158.808 193.779C159.272 192.061 159.701 190.629 160.041 189.627C160.202 189.126 160.362 188.732 160.452 188.464C160.613 188.249 160.666 188.106 160.666 188.106Z" fill="#74A32D"/>
<path d="M154.626 251.888C154.626 251.888 154.644 252.067 154.698 252.425C154.733 252.765 154.823 253.266 154.894 253.928C155.055 255.216 155.234 257.078 155.394 259.297C155.555 261.516 155.662 264.111 155.752 266.903C155.788 268.299 155.823 269.73 155.823 271.198C155.841 272.647 155.823 274.133 155.823 275.618C155.805 277.103 155.788 278.589 155.752 280.038C155.716 281.506 155.662 282.938 155.609 284.333C155.484 287.125 155.341 289.72 155.18 291.939C155.019 294.158 154.84 296.02 154.698 297.326C154.644 297.97 154.572 298.489 154.537 298.829C154.483 299.187 154.465 299.366 154.465 299.366C154.465 299.366 154.429 299.169 154.394 298.829C154.358 298.489 154.287 297.97 154.197 297.326C154.054 296.038 153.858 294.176 153.679 291.957C153.5 289.738 153.357 287.143 153.232 284.369C153.179 282.991 153.125 281.542 153.089 280.092C153.071 278.625 153.036 277.139 153.036 275.672C153.036 274.186 153.036 272.701 153.071 271.234C153.107 269.766 153.143 268.334 153.196 266.938C153.304 264.147 153.482 261.552 153.679 259.333C153.876 257.096 154.09 255.234 154.287 253.946C154.358 253.284 154.465 252.783 154.519 252.443C154.59 252.085 154.626 251.888 154.626 251.888Z" fill="#74A32D"/>
<path d="M151.606 197.859C151.606 197.859 151.481 198.182 151.249 198.772C151.017 199.363 150.713 200.24 150.284 201.349C149.426 203.568 148.265 206.736 146.871 210.53C146.174 212.427 145.423 214.485 144.655 216.668C143.869 218.87 143.065 221.16 142.26 223.558C141.438 225.938 140.616 228.426 139.794 230.949C138.972 233.455 138.168 236.032 137.382 238.591C136.578 241.15 135.81 243.709 135.095 246.251C134.38 248.774 133.647 251.261 132.986 253.695C131.664 258.527 130.52 263.037 129.555 266.903C128.608 270.768 127.84 273.99 127.339 276.262C127.089 277.39 126.875 278.267 126.732 278.875C126.607 279.484 126.517 279.806 126.517 279.806C126.517 279.806 126.571 279.484 126.66 278.875C126.75 278.249 126.875 277.372 127.071 276.227C127.464 273.954 128.001 270.679 128.787 266.795C129.555 262.894 130.556 258.33 131.753 253.481C132.361 251.047 133.004 248.541 133.701 246C134.398 243.459 135.148 240.9 135.917 238.323C136.703 235.746 137.507 233.186 138.347 230.681C139.187 228.158 140.045 225.688 140.902 223.308C141.778 220.928 142.636 218.637 143.476 216.454C144.316 214.288 145.155 212.248 145.942 210.369C147.514 206.593 148.944 203.497 149.944 201.313C150.445 200.24 150.874 199.381 151.142 198.808C151.446 198.182 151.606 197.859 151.606 197.859Z" fill="#009CB1"/>
<path d="M142.493 251.566C142.493 251.566 142.475 251.798 142.439 252.264C142.386 252.711 142.332 253.391 142.225 254.232C142.028 255.932 141.742 258.348 141.367 261.248C140.974 264.129 140.509 267.511 139.955 271.108C139.687 272.916 139.401 274.777 139.115 276.656C138.829 278.535 138.526 280.45 138.24 282.383C137.936 284.298 137.632 286.213 137.346 288.092C137.06 289.989 136.757 291.832 136.471 293.622C135.917 297.201 135.381 300.547 134.898 303.393C134.416 306.238 134.023 308.637 133.737 310.283C133.594 311.106 133.469 311.768 133.379 312.216C133.29 312.663 133.254 312.896 133.254 312.896C133.254 312.896 133.254 312.663 133.254 312.198C133.254 311.75 133.254 311.088 133.254 310.229C133.272 308.529 133.344 306.131 133.469 303.232C133.612 300.333 133.862 296.95 134.201 293.335C134.38 291.528 134.577 289.667 134.809 287.77C135.023 285.873 135.291 283.958 135.577 282.025C135.845 280.11 136.149 278.177 136.489 276.298C136.81 274.419 137.15 272.558 137.507 270.768C138.222 267.189 138.99 263.843 139.723 260.997C140.456 258.152 141.135 255.789 141.671 254.143C141.903 253.32 142.135 252.675 142.278 252.228C142.421 251.798 142.493 251.566 142.493 251.566Z" fill="#74A32D"/>
<path d="M147.997 176.867C147.997 176.867 147.729 177.189 147.21 177.798C146.692 178.406 145.959 179.283 144.995 180.411C144.03 181.538 142.886 182.916 141.546 184.473C140.223 186.066 138.758 187.855 137.15 189.824C135.559 191.793 133.862 193.94 132.075 196.213C130.288 198.504 128.483 200.937 126.589 203.461C124.695 205.984 122.836 208.651 120.924 211.335C119.03 214.037 117.154 216.793 115.331 219.603C113.49 222.377 111.703 225.187 109.988 227.978C108.29 230.77 106.61 233.526 105.056 236.211C103.519 238.913 102.036 241.508 100.66 243.995C99.3197 246.483 98.0331 248.845 96.8894 251.029C95.7636 253.212 94.7272 255.216 93.8158 257.006C92.9223 258.796 92.1361 260.37 91.5106 261.641C90.8852 262.93 90.3848 263.932 90.0453 264.63C89.7058 265.328 89.5271 265.686 89.5271 265.686C89.5271 265.686 89.6522 265.292 89.9024 264.576C90.1525 263.86 90.5099 262.804 90.9924 261.462C91.4928 260.12 92.0825 258.509 92.8151 256.666C93.5478 254.823 94.3877 252.729 95.3884 250.492C96.3533 248.237 97.4612 245.803 98.6942 243.262C99.9272 240.703 101.25 238.018 102.715 235.28C104.18 232.542 105.717 229.714 107.397 226.887C109.059 224.059 110.828 221.214 112.65 218.386C114.491 215.576 116.385 212.785 118.315 210.082C120.227 207.362 122.246 204.749 124.194 202.244C126.142 199.721 128.126 197.358 130.055 195.121C131.95 192.884 133.826 190.826 135.595 188.929C137.328 187.032 139.008 185.35 140.509 183.865C141.992 182.379 143.333 181.109 144.441 180.071C145.548 179.015 146.46 178.227 147.05 177.69C147.657 177.154 147.997 176.867 147.997 176.867Z" fill="#F5E400"/>
<path d="M130.77 172.68C130.77 172.68 130.448 172.894 129.859 173.27C129.269 173.646 128.393 174.219 127.285 174.917C126.178 175.633 124.855 176.509 123.318 177.512C121.782 178.514 120.084 179.659 118.208 180.912C116.331 182.183 114.33 183.578 112.221 185.046C110.113 186.531 107.897 188.142 105.627 189.806C103.358 191.471 101.053 193.26 98.694 195.068C96.3352 196.893 93.9943 198.772 91.6712 200.705C89.3303 202.62 87.0251 204.588 84.7735 206.539C82.5398 208.508 80.3061 210.44 78.2154 212.373C76.1246 214.306 74.0875 216.185 72.1933 217.993C70.317 219.818 68.5121 221.536 66.886 223.147C65.2599 224.757 63.7767 226.261 62.4543 227.603C61.1498 228.945 60.0062 230.108 59.0591 231.075C58.1299 232.059 57.3793 232.811 56.879 233.348C56.3786 233.867 56.1106 234.135 56.1106 234.135C56.1106 234.135 56.325 233.831 56.7539 233.24C57.1828 232.667 57.8082 231.826 58.6302 230.753C59.4522 229.679 60.4529 228.408 61.6323 226.977C62.8117 225.527 64.1519 223.898 65.6709 222.18C67.1719 220.444 68.8338 218.601 70.6386 216.686C72.4256 214.771 74.3555 212.767 76.4105 210.781C78.4477 208.776 80.592 206.718 82.8257 204.714C85.0416 202.691 87.3646 200.705 89.7055 198.754C92.0643 196.822 94.4589 194.925 96.8534 193.117C99.2301 191.292 101.642 189.592 103.983 187.963C106.324 186.334 108.647 184.831 110.863 183.435C113.079 182.039 115.206 180.787 117.207 179.641C119.173 178.496 121.031 177.512 122.675 176.653C124.319 175.776 125.784 175.06 126.982 174.487C128.179 173.897 129.144 173.467 129.787 173.163C130.413 172.841 130.77 172.68 130.77 172.68Z" fill="#74A32D"/>
<path d="M68.1194 247.36C68.1194 247.36 70.4067 243.423 74.3023 237.804C75.2851 236.39 76.3394 234.887 77.5188 233.294C78.6804 231.719 79.9134 230.055 81.2357 228.372C82.5759 226.672 83.934 224.936 85.3815 223.2C86.8289 221.465 88.3121 219.729 89.831 217.993C91.3499 216.275 92.9046 214.592 94.4414 212.928C95.9782 211.264 97.5686 209.689 99.0696 208.168C102.125 205.107 105.092 202.369 107.683 200.079C112.865 195.479 116.6 192.705 116.6 192.705C116.6 192.705 113.24 195.801 108.326 200.598C105.86 202.996 103.037 205.823 100.07 208.919C98.5871 210.458 97.0861 212.087 95.5493 213.715C94.0125 215.362 92.4757 217.062 90.9747 218.78C89.4558 220.48 87.9547 222.216 86.5073 223.934C85.0598 225.652 83.6302 227.334 82.2722 228.999C80.9141 230.663 79.6096 232.274 78.3944 233.813C77.1793 235.352 76.0356 236.819 74.9992 238.179C70.8177 243.638 68.1194 247.36 68.1194 247.36Z" fill="#009CB1"/>
<path d="M31.2898 209.277C31.2898 209.277 31.7187 208.955 32.5228 208.329C33.3448 207.738 34.5242 206.825 36.061 205.734C39.1167 203.55 43.4948 200.454 48.8735 197.108C51.554 195.426 54.4846 193.672 57.5939 191.9C60.7032 190.146 64.027 188.357 67.4758 186.603C70.9247 184.885 74.5165 183.167 78.1798 181.538C81.8609 179.927 85.5957 178.388 89.3662 176.975C93.1367 175.561 96.925 174.254 100.678 173.073C104.43 171.874 108.129 170.854 111.721 169.924C118.905 168.08 125.677 166.756 131.467 165.879C137.275 164.966 142.117 164.519 145.513 164.233C147.21 164.089 148.533 164.018 149.444 163.964C150.355 163.91 150.838 163.893 150.838 163.893C150.838 163.893 150.355 163.946 149.444 164.036C148.533 164.143 147.21 164.304 145.513 164.519C142.135 164.931 137.31 165.646 131.539 166.702C125.767 167.776 119.066 169.226 111.918 171.176C108.344 172.143 104.663 173.252 100.928 174.433C97.211 175.632 93.4404 176.939 89.6699 178.371C85.9173 179.784 82.1826 181.288 78.5193 182.88C74.856 184.455 71.2821 186.12 67.8154 187.802C64.3665 189.484 61.0428 191.202 57.9156 192.902C54.7884 194.602 51.822 196.267 49.1237 197.877C43.7092 201.081 39.2597 203.926 36.1503 206.002C34.5957 207.04 33.3805 207.863 32.5407 208.436C31.7365 208.973 31.2898 209.277 31.2898 209.277Z" fill="#74A32D"/>
<path d="M20.2104 185.797C20.2104 185.797 20.6036 185.565 21.3184 185.135C22.0332 184.724 23.0875 184.097 24.4277 183.364C25.7679 182.63 27.394 181.735 29.2704 180.787C31.1288 179.82 33.2553 178.764 35.5784 177.673C37.9014 176.581 40.4032 175.436 43.0657 174.344C45.7283 173.234 48.5339 172.089 51.4466 171.033C54.3594 169.995 57.3615 168.921 60.435 167.991C63.4907 167.042 66.6179 166.148 69.7094 165.324C72.8187 164.519 75.9102 163.785 78.9837 163.177C82.0216 162.533 85.0237 162.031 87.9186 161.566C90.8135 161.101 93.6011 160.761 96.2458 160.474C98.8727 160.17 101.374 159.991 103.662 159.848C105.949 159.705 108.058 159.633 109.898 159.58C111.757 159.526 113.365 159.544 114.687 159.544C116.01 159.562 117.046 159.598 117.743 159.615C118.44 159.633 118.815 159.651 118.815 159.651C118.815 159.651 118.44 159.705 117.707 159.777C116.975 159.848 115.92 159.991 114.562 160.134C113.222 160.296 111.578 160.492 109.702 160.725C107.825 160.958 105.699 161.244 103.394 161.566C101.089 161.888 98.5868 162.282 95.942 162.729C93.2973 163.177 90.4918 163.696 87.6148 164.233C84.7199 164.787 81.7357 165.45 78.7157 166.13C75.6779 166.828 72.5864 167.579 69.5128 168.385C66.4392 169.172 63.3478 170.031 60.3278 170.962C57.29 171.892 54.3057 172.787 51.4109 173.753C48.516 174.72 45.7283 175.668 43.0836 176.635C40.4389 177.601 37.9371 178.532 35.6141 179.426C33.3089 180.339 31.2003 181.18 29.324 181.95C27.4477 182.719 25.8036 183.399 24.4634 183.972C23.1232 184.545 22.051 184.974 21.3362 185.296C20.6036 185.619 20.2104 185.797 20.2104 185.797Z" fill="#F5E400"/>
<path d="M24.0166 158.399C24.0166 158.399 24.4812 158.255 25.3747 157.969C26.2682 157.701 27.5905 157.271 29.2345 156.806C32.5404 155.875 37.2759 154.569 42.9048 153.334C45.7104 152.726 48.7482 152.117 51.9647 151.562C55.1634 151.007 58.5229 150.506 62.0075 150.059C65.4742 149.629 69.0481 149.289 72.6399 149.003C76.2496 148.753 79.895 148.574 83.5047 148.484C87.1322 148.413 90.7062 148.448 94.2444 148.538C97.7825 148.627 101.196 148.86 104.502 149.11C111.095 149.647 117.153 150.488 122.282 151.383C127.428 152.26 131.592 153.244 134.505 153.925C135.97 154.265 137.096 154.587 137.882 154.784C138.65 154.998 139.061 155.106 139.061 155.106C139.061 155.106 138.633 155.016 137.828 154.873C137.042 154.712 135.863 154.497 134.362 154.211C131.378 153.638 127.071 152.922 121.871 152.224C116.671 151.526 110.559 150.864 103.912 150.453C100.606 150.238 97.1571 150.113 93.6368 150.023C90.1165 149.952 86.5425 149.952 82.915 150.059C79.3053 150.131 75.6956 150.292 72.086 150.542C68.512 150.775 64.956 151.097 61.525 151.491C58.094 151.866 54.7524 152.296 51.5895 152.779C48.4087 153.244 45.4245 153.763 42.6368 154.282C37.0615 155.32 32.4332 156.323 29.1631 157.128C27.5191 157.522 26.2503 157.826 25.3747 158.059C24.4812 158.291 24.0166 158.399 24.0166 158.399Z" fill="#009CB1"/>
<path d="M38.813 127.474C38.813 127.474 39.0453 127.456 39.492 127.403C39.9388 127.367 40.5821 127.313 41.4041 127.277C43.0302 127.188 45.3533 127.098 48.0337 127.134C50.732 127.152 53.8235 127.313 57.0579 127.617C58.6662 127.76 60.3281 127.957 61.9899 128.19C63.6518 128.405 65.3137 128.673 66.9756 128.959C68.6196 129.264 70.2457 129.568 71.8361 129.944C73.4265 130.284 74.9633 130.677 76.4286 131.071C79.3771 131.859 82.0397 132.718 84.2913 133.523C86.525 134.328 88.3298 135.098 89.5807 135.653C90.1882 135.921 90.6707 136.154 90.9924 136.315C91.314 136.476 91.4749 136.565 91.4749 136.565C91.4749 136.565 91.2604 136.53 90.8494 136.494C90.4563 136.44 89.8309 136.368 89.0803 136.243C87.5614 136.028 85.4349 135.688 82.8974 135.277C80.3599 134.865 77.4293 134.364 74.3021 133.827C72.7475 133.559 71.1392 133.29 69.5131 133.004C67.8691 132.736 66.2429 132.449 64.581 132.163C62.937 131.877 61.293 131.608 59.6847 131.34C58.0765 131.071 56.4861 130.803 54.9672 130.534C51.9114 130.015 49.088 129.532 46.6756 129.085C44.2811 128.637 42.2976 128.244 40.9216 127.939C40.2426 127.796 39.7065 127.671 39.3491 127.581C39.0096 127.528 38.813 127.474 38.813 127.474Z" fill="#74A32D"/>
<path d="M81.5037 115.323C81.5037 115.323 81.8432 115.376 82.4508 115.466C83.0583 115.591 83.9518 115.734 85.0776 115.967C87.3292 116.414 90.4921 117.094 94.1911 118.061C97.8901 119.027 102.107 120.298 106.485 121.819C108.683 122.57 110.917 123.394 113.133 124.271C115.367 125.147 117.582 126.096 119.798 127.062C121.978 128.029 124.159 129.031 126.231 130.069C128.34 131.089 130.359 132.145 132.271 133.201C136.113 135.295 139.562 137.371 142.439 139.232C145.316 141.093 147.604 142.721 149.176 143.885C149.962 144.457 150.552 144.941 150.963 145.245C151.374 145.567 151.588 145.728 151.588 145.728C151.588 145.728 151.303 145.585 150.802 145.334C150.302 145.084 149.551 144.708 148.622 144.225C146.746 143.276 144.083 141.916 140.885 140.323C137.686 138.731 133.933 136.887 129.895 134.99C127.875 134.024 125.767 133.058 123.64 132.091C121.496 131.125 119.334 130.14 117.118 129.21C114.938 128.261 112.722 127.331 110.542 126.436C108.362 125.541 106.217 124.664 104.127 123.841C99.963 122.195 96.0317 120.709 92.6722 119.457C89.3127 118.204 86.5072 117.184 84.5415 116.468C83.5587 116.11 82.8081 115.824 82.2899 115.627C81.7896 115.43 81.5037 115.323 81.5037 115.323Z" fill="#F5E400"/>
<path d="M61.4004 88.1384C61.4004 88.1384 61.8293 88.2637 62.6334 88.4964C63.4375 88.729 64.6348 89.069 66.1001 89.5343C69.0486 90.5007 73.3016 91.8608 78.18 93.722C80.646 94.6526 83.255 95.7264 86.0069 96.8717C88.741 98.035 91.6001 99.3235 94.5307 100.701C97.4256 102.097 100.392 103.583 103.376 105.14C106.343 106.715 109.309 108.361 112.222 110.061C115.134 111.779 117.994 113.551 120.781 115.341C123.569 117.13 126.231 118.956 128.787 120.745C133.898 124.342 138.472 127.886 142.296 131.035C146.12 134.167 149.14 136.905 151.267 138.82C152.339 139.787 153.125 140.556 153.679 141.075C154.215 141.594 154.519 141.88 154.519 141.88C154.519 141.88 154.18 141.612 153.59 141.129C152.982 140.628 152.071 139.912 150.945 138.999C148.694 137.174 145.37 134.615 141.367 131.626C137.346 128.637 132.593 125.237 127.357 121.747C124.748 119.994 121.996 118.258 119.191 116.486C116.385 114.732 113.508 112.996 110.578 111.314C107.665 109.614 104.716 107.967 101.768 106.392C98.8373 104.818 95.9246 103.314 93.0654 101.901C90.2241 100.487 87.4365 99.1445 84.7739 97.9276C82.1292 96.6928 79.5917 95.5653 77.2329 94.5631C72.5153 92.5409 68.584 90.9123 65.7606 89.8386C64.3489 89.3017 63.2767 88.8722 62.5083 88.5679C61.8114 88.2995 61.4004 88.1384 61.4004 88.1384Z" fill="#009CB1"/>
<path d="M99.3196 83.5033C99.3196 83.5033 99.4625 83.557 99.7484 83.6823C100.016 83.8075 100.463 83.9507 100.946 84.1834C101.964 84.6308 103.358 85.2929 104.949 86.1698C106.521 87.0288 108.308 88.1205 110.095 89.3374C110.988 89.9459 111.9 90.5902 112.793 91.2702C113.687 91.9324 114.562 92.6482 115.438 93.3462C116.296 94.062 117.153 94.7778 117.94 95.5116C118.744 96.2453 119.512 96.9791 120.245 97.6949C121.692 99.1445 122.943 100.54 123.962 101.775C124.98 103.01 125.749 104.102 126.249 104.871C126.517 105.247 126.696 105.569 126.821 105.784C126.946 105.999 127.018 106.106 127.018 106.106C127.018 106.106 126.892 106.035 126.624 105.891C126.374 105.748 125.981 105.551 125.534 105.283C124.587 104.764 123.301 103.959 121.817 102.992C120.334 102.026 118.672 100.863 116.921 99.5919C116.063 98.9655 115.17 98.3034 114.312 97.6233C113.419 96.9433 112.543 96.2453 111.668 95.5474C110.81 94.8494 109.934 94.1336 109.13 93.4356C108.29 92.7377 107.504 92.0397 106.753 91.3418C105.234 89.9817 103.876 88.6574 102.751 87.512C101.643 86.3488 100.785 85.3645 100.195 84.6486C99.9093 84.2907 99.6948 84.0044 99.5519 83.8075C99.3911 83.6286 99.3196 83.5033 99.3196 83.5033Z" fill="#74A32D"/>
<path d="M134.898 207.005C134.898 207.005 134.845 207.183 134.737 207.524C134.612 207.864 134.469 208.365 134.237 208.991C133.808 210.244 133.147 212.015 132.361 214.145C131.539 216.275 130.574 218.744 129.484 221.357C128.948 222.682 128.394 224.042 127.822 225.42C127.268 226.798 126.66 228.194 126.088 229.589C125.499 230.985 124.927 232.381 124.337 233.759C123.748 235.137 123.176 236.479 122.622 237.786C121.514 240.399 120.442 242.833 119.512 244.909C118.583 246.984 117.779 248.72 117.225 249.937C116.939 250.546 116.707 251.011 116.546 251.333C116.385 251.655 116.296 251.816 116.296 251.816C116.296 251.816 116.332 251.637 116.385 251.297C116.457 250.957 116.528 250.456 116.671 249.794C116.921 248.524 117.35 246.68 117.922 244.515C118.494 242.349 119.244 239.808 120.138 237.142C120.585 235.799 121.067 234.421 121.585 233.025C122.104 231.63 122.657 230.216 123.229 228.802C123.819 227.388 124.409 225.992 125.034 224.614C125.66 223.254 126.267 221.894 126.928 220.606C128.197 218.011 129.466 215.63 130.645 213.608C131.842 211.586 132.879 209.922 133.647 208.776C134.023 208.186 134.344 207.756 134.559 207.452C134.755 207.166 134.898 207.005 134.898 207.005Z" fill="#74A32D"/>
<path d="M205.43 44.0065C205.43 44.0065 177.053 84.6128 175.837 130.463C175.837 130.463 171.459 74.1077 205.43 44.0065Z" fill="#F5E400"/>
<path d="M95.4238 15.5874C95.4238 15.5874 147.978 43.9885 159.183 111.457C159.183 111.457 152.16 38.4944 95.4238 15.5874Z" fill="#74A32D"/>
<path d="M102.179 216.758C102.179 216.758 70.0312 250.116 68.137 291.027C68.1191 291.027 81.8251 236.855 102.179 216.758Z" fill="#74A32D"/>
<path d="M270.957 203.407C270.957 203.407 301.211 216.31 318.151 251.852C318.151 251.852 295.76 222.843 270.957 203.407Z" fill="#009CB1"/>
<path d="M68.1189 203.407C68.1189 203.407 28.4125 227.621 24.0166 274.258C24.0166 274.258 33.6126 230.484 68.1189 203.407Z" fill="#F5E400"/>
<path d="M23.9275 256.881V247.575L26.2863 256.881L29.6994 248.541L28.2162 258.885C28.2162 258.885 35.5785 253.892 36.1861 253.23C36.7936 252.586 29.6994 262.93 29.6994 262.93L42.905 259.136L31.0039 266.205L42.905 268.728H30.7358L36.1861 275.797L29.6994 271.502L36.1861 285.139L26.2863 274.025V280.074L23.9275 273.632L19.2635 289.738L20.5858 274.025L15.6717 279.895L20.3893 271.198L5.82551 279.519L20.568 269.48L0 271.949L19.2814 267.78L7.38017 264.952L17.0119 265.883L13.9919 260.21L20.4071 264.183L13.2235 246.787L22.6587 261.552L21.4257 254.751L23.9275 256.881Z" fill="#F3E97C"/>
<path d="M233.306 44.7403V37.564L235.129 44.7403L237.756 38.2977L236.612 46.2973C236.612 46.2973 242.312 42.4317 242.777 41.9127C243.242 41.4117 237.756 49.4112 237.756 49.4112L247.959 46.4763L238.739 51.9525L247.959 53.9031H238.542L242.759 59.3794L237.738 56.0507L242.759 66.5915L235.111 58.0014V62.6901L233.288 57.715L229.696 70.1707L230.715 58.0192L226.927 62.5649L230.59 55.818L219.332 62.2606L230.733 54.4937L214.793 56.4086L229.714 53.1873L220.512 51.004L227.963 51.7377L225.622 47.3353L230.608 50.4134L225.05 36.9376L232.359 48.3553L231.412 43.0939L233.306 44.7403Z" fill="#F3E97C"/>
<path d="M18.513 23.3187V16.1245L20.3357 23.3008L22.9804 16.8761L21.8367 24.8757C21.8367 24.8757 27.5371 21.0101 28.0017 20.4911C28.4664 19.99 22.9804 27.9896 22.9804 27.9896L33.2018 25.0546L23.9811 30.5308L33.2018 32.4815H23.8024L28.0196 37.9577L22.9982 34.6469L28.0196 45.1877L20.3535 36.5976V41.2864L18.5308 36.3113L14.9212 48.767L15.9576 36.5976L12.1514 41.1432L15.7968 34.4143L4.53889 40.8569L15.9397 33.09L0 34.987L14.9033 31.7657L5.70042 29.5823L13.1521 30.2982L10.829 25.9136L15.7968 28.9918L10.2214 15.516L17.5301 26.9337L16.6009 21.6544L18.513 23.3187Z" fill="#F3E97C"/>
<path d="M17.6908 115.573V111.6L18.6915 115.573L20.1389 112.012L19.5135 116.45C19.5135 116.45 22.6764 114.303 22.9266 114.034C23.1946 113.748 20.1389 118.186 20.1389 118.186L25.8036 116.575L20.6929 119.6L25.8036 120.674H20.6035L22.9266 123.698L20.1389 121.855L22.9266 127.689L18.6915 122.928V125.523L17.6908 122.75L15.6894 129.64L16.2612 122.911L14.1526 125.416L16.1719 121.694L9.93535 125.273L16.2612 120.978L7.43359 122.034L15.6894 120.244L10.5965 119.027L14.7244 119.421L13.4199 116.987L16.1719 118.687L13.0983 111.242L17.1547 117.56L16.6186 114.643L17.6908 115.573Z" fill="#02DBF3"/>
<path d="M238.721 249.078V241.884L240.543 249.078L243.17 242.636L242.027 250.635C242.027 250.635 247.727 246.77 248.192 246.268C248.656 245.767 243.17 253.767 243.17 253.767L253.374 250.832L244.171 256.29L253.374 258.241H243.974L248.192 263.699L243.17 260.371L248.192 270.929L240.543 262.339V267.028L238.721 262.035L235.111 274.491L236.13 262.339L232.323 266.885L235.987 260.156L224.729 266.598L236.13 258.832L220.19 260.746L235.111 257.525L225.908 255.324L233.36 256.058L231.019 251.655L236.005 254.733L230.429 241.258L237.738 252.675L236.791 247.414L238.721 249.078Z" fill="#F3E97C"/>
<path d="M315.614 245.767V241.043L316.811 245.767L318.545 241.526L317.794 246.787C317.794 246.787 321.547 244.246 321.851 243.906C322.155 243.584 318.545 248.828 318.545 248.828L325.264 246.895L319.206 250.492L325.264 251.78H319.081L321.851 255.377L318.545 253.194L321.851 260.12L316.811 254.465V257.543L315.614 254.268L313.238 262.446L313.917 254.447L311.415 257.436L313.827 252.997L306.429 257.221L313.934 252.12L303.463 253.373L313.273 251.243L307.216 249.812L312.112 250.295L310.575 247.414L313.845 249.436L310.2 240.577L314.989 248.094L314.381 244.64L315.614 245.767Z" fill="#69C6EA"/>
<path d="M62.6687 82.3399V77.6153L63.866 82.3399L65.5994 78.0985L64.8488 83.36C64.8488 83.36 68.6015 80.8187 68.9053 80.4787C69.209 80.1387 65.5994 85.4001 65.5994 85.4001L72.3184 83.4674L66.2605 87.0645L72.3184 88.3351H66.1355L68.9053 91.9322L65.5994 89.7489L68.9053 96.6747L63.866 91.0195V94.0976L62.6687 90.8227L60.2921 99.0012L60.9711 91.0016L58.4694 93.9903L60.8818 89.5699L53.4837 93.7934L60.9711 88.693L50.4995 89.9457L60.2921 87.834L54.2343 86.4023L59.1306 86.8855L57.5938 83.9863L60.8639 86.0086L57.2006 77.15L62.0076 84.6664L61.3821 81.1945L62.6687 82.3399Z" fill="#69C6EA"/>
<path d="M126.66 277.3V273.292L127.697 277.3L129.162 273.703L128.519 278.177C128.519 278.177 131.7 276.012 131.968 275.725C132.218 275.439 129.144 279.913 129.144 279.913L134.862 278.285L129.716 281.345L134.862 282.436H129.609L131.968 285.497L129.144 283.635L131.968 289.523L127.679 284.727V287.34L126.642 284.566L124.623 291.528L125.213 284.727L123.086 287.268L125.141 283.492L118.833 287.089L125.213 282.759L116.296 283.814L124.623 282.025L119.477 280.808L123.64 281.202L122.336 278.75L125.123 280.468L122.014 272.934L126.106 279.323L125.588 276.37L126.66 277.3Z" fill="#69C6EA"/>
<path d="M236.791 130.463C236.791 130.463 289.846 118.079 318.152 130.463C318.152 130.463 277.016 110.938 236.791 130.463Z" fill="#74A32D"/>
<path d="M171.352 162.049C171.352 162.049 172.496 138.355 214.043 124.038C214.043 124.038 178.464 124.414 171.352 162.049Z" fill="#F5E400"/>
<path d="M163.507 91.4492C163.507 91.4492 157.039 41.9128 142.493 30.8888C142.493 30.8888 166.045 43.0224 163.507 91.4492Z" fill="#F5E400"/>
<path d="M185.523 153.423C185.523 153.423 220.816 113.676 265.4 115.323C265.418 115.323 224.765 118.383 185.523 153.423Z" fill="#009CB1"/>
<path d="M150.855 158.399C150.855 158.399 134.004 142.829 102.178 139.017C102.178 139.017 133.111 135.456 150.855 158.399Z" fill="#F5E400"/>
<path d="M142.493 121.783C142.493 121.783 157.289 131.376 160.827 153.424C160.827 153.424 159.183 124.038 142.493 121.783Z" fill="#F5E400"/>
<path d="M309.735 187.784V181.789L311.254 187.784L313.452 182.415L312.504 189.09C312.504 189.09 317.258 185.869 317.651 185.44C318.026 185.01 313.452 191.703 313.452 191.703L321.975 189.269L314.291 193.833L321.975 195.461H314.131L317.651 200.025L313.452 197.269L317.651 206.074L311.254 198.898V202.799L309.735 198.647L306.732 209.027L307.59 198.898L304.409 202.692L307.447 197.072L298.048 202.441L307.572 195.963L294.277 197.555L306.715 194.871L299.031 193.046L305.249 193.654L303.302 189.985L307.447 192.544L302.819 181.306L308.913 190.844L308.126 186.442L309.735 187.784Z" fill="#8BBC22"/>
<path d="M36.4183 201.116V196.302L37.6334 201.116L39.4025 196.803L38.6341 202.154C38.6341 202.154 42.4404 199.559 42.762 199.237C43.0658 198.897 39.4025 204.248 39.4025 204.248L46.2287 202.298L40.0637 205.948L46.2287 207.255H39.9386L42.762 210.906L39.4025 208.686L42.762 215.738L37.6334 209.993V213.125L36.4183 209.796L34.0059 218.118L34.7028 209.993L32.1653 213.017L34.6135 208.525L27.0903 212.838L34.7207 207.648L24.0525 208.919L34.0238 206.772L27.8766 205.322L32.8622 205.805L31.2897 202.87L34.6135 204.928L30.8966 195.927L35.7929 203.55L35.1674 200.025L36.4183 201.116Z" fill="#8BBC22"/>
<path d="M97.5685 8.67962V0.680052L99.5877 8.66172L102.518 1.50327L101.267 10.3976C101.267 10.3976 107.593 6.10257 108.112 5.54779C108.63 4.99302 102.518 13.8874 102.518 13.8874L113.866 10.6303L103.644 16.6971L113.866 18.8625H103.43L108.112 24.9293L102.518 21.2427L108.112 32.9467L99.6056 23.4081V28.6338L97.5863 23.1039L93.5835 36.9376L94.7093 23.4439L90.4921 28.4727L94.5485 20.9921L82.0576 28.1506L94.7093 19.5247L77.0005 21.6364L93.5657 18.0572L83.3263 15.6233L91.6179 16.4286L89.0089 11.543L94.5306 14.9612L88.3656 0L96.4963 12.6883L95.442 6.81842L97.5685 8.67962Z" fill="#8BBC22"/>
</svg>
