<svg width="136" height="143" viewBox="0 0 136 143" fill="none" xmlns="http://www.w3.org/2000/svg">
<path d="M132.488 119.028L113.648 121.719C113.516 119.689 113.528 116.428 114.242 111.984C115.512 104.077 119.294 91.0494 130.1 73.8843C130.426 73.3664 130.613 72.7342 130.632 72.0776C130.652 71.421 130.504 70.7736 130.209 70.2273C129.915 69.681 129.489 69.2638 128.992 69.0349C128.495 68.806 127.953 68.7772 127.442 68.9525C127.095 69.0715 118.847 71.9632 110.563 80.1287C105.079 85.5341 98.8628 94.056 95.7658 106.572C95.9293 105.31 96.1152 104.052 96.3233 102.8C98.7313 88.332 105.713 64.5535 125.304 33.4368C125.63 32.9188 125.816 32.2866 125.835 31.6301C125.855 30.9736 125.707 30.3262 125.412 29.7799C125.118 29.2335 124.692 28.8161 124.195 28.5872C123.699 28.3583 123.156 28.3295 122.645 28.5049C107.645 33.6528 94.1667 43.9741 83.6694 58.3528C81.6565 61.109 79.768 64.0008 78.0123 67.015C74.8825 47.425 72.0289 32.0025 69.5163 21.1062C68.0528 14.759 66.6868 9.89474 65.4561 6.64794C64.6847 4.61296 62.8785 -0.15226 59.7068 0.30067C56.7686 0.720252 55.7366 4.97462 55.1146 9.08083C54.4982 13.1491 54.074 19.1 53.8533 26.7683C53.4733 39.9723 53.6759 58.3313 54.4538 81.4197C48.5177 73.8811 41.3716 67.6276 33.1629 62.8074C17.519 53.6212 3.57227 52.821 2.98646 52.7914C2.457 52.7649 1.93426 52.9459 1.49258 53.3088C1.05089 53.6717 0.71275 54.198 0.526244 54.8129C0.339737 55.4278 0.314359 56.0999 0.45372 56.7336C0.59308 57.3674 0.890083 57.9306 1.30249 58.3431C17.2561 74.294 27.074 88.6226 33.108 100.013C29.893 96.7437 26.5808 94.3255 23.5612 92.5525C13.9964 86.9355 5.43393 86.4448 5.07415 86.4267C4.5446 86.4 4.02174 86.5809 3.57994 86.9438C3.13814 87.3067 2.7999 87.8331 2.61335 88.4481C2.4268 89.063 2.40144 89.7353 2.54086 90.3691C2.68029 91.003 2.97741 91.5662 3.38996 91.9787C16.8013 105.388 22.8744 116.813 25.6072 124.037C27.2622 128.41 27.9186 131.798 28.1765 133.924L16.7427 135.557C15.3605 135.754 14.3688 137.303 14.5281 139.017C14.6873 140.731 15.9372 141.96 17.3193 141.763L133.065 125.234C134.447 125.037 135.438 123.487 135.279 121.774C135.12 120.06 133.87 118.831 132.488 119.028ZM58.8055 30.4463C59.0741 16.9039 59.8473 10.8193 60.4318 8.11087C61.3981 10.3523 63.0273 15.254 65.3675 25.921C67.939 37.6418 70.8621 53.9824 74.0575 74.4972C70.2168 82.5428 67.3615 91.1721 65.5698 100.163C63.8737 96.2719 61.9343 92.5521 59.7693 89.0371C58.8466 64.465 58.522 44.7536 58.8055 30.4463ZM33.1841 133.209C32.4386 126.755 28.96 112.519 13.4963 94.5786C15.8879 95.3941 18.6017 96.5534 21.4036 98.1984C32.8861 104.941 40.1521 116.249 43.0001 131.808L33.1841 133.209ZM48.4599 131.028C48.1634 127.066 47.1342 120.129 43.7704 110.938C37.6599 94.2408 26.7082 77.2895 11.1635 60.4477C16.4337 61.7182 23.6427 64.1031 31.1694 68.5498C40.942 74.3231 48.9209 82.0356 55.0636 91.6207C55.199 91.9397 55.3779 92.2273 55.5923 92.4708C59.0599 98.0406 61.9214 104.228 64.1681 111.02C64.217 111.222 64.2822 111.415 64.3619 111.599C65.8278 116.125 67.0253 120.914 67.9483 125.967C68.0844 126.712 68.2151 127.452 68.3424 128.188L48.4599 131.028ZM90.3544 125.045L85.7017 125.71C84.4639 115.018 85.7034 102.622 89.3943 88.8372C89.8326 87.2001 89.1172 85.4322 87.7966 84.8888C86.4753 84.3453 85.05 85.2324 84.6117 86.8692C80.6922 101.508 79.3776 114.804 80.6946 126.425L73.3713 127.47C73.2073 126.508 73.0376 125.547 72.8622 124.587C71.9145 119.4 70.6816 114.448 69.1723 109.742C73.0381 77.6864 91.5598 49.8229 116.426 37.6637C109.695 49.1494 104.168 60.4216 99.9517 71.2735C95.7617 82.0565 92.8439 92.4635 91.2792 102.205C89.5217 113.15 89.8646 120.855 90.3544 125.045ZM98.8317 123.834C98.7522 107.959 103.707 94.9462 113.559 85.1566C116.022 82.7094 118.504 80.7729 120.729 79.2752C108.967 101.098 108.191 115.938 108.648 122.432L98.8317 123.834Z" fill="url(#paint0_linear_17486_2149)" fill-opacity="0.2"/>
<path d="M92.3611 78.7857C92.932 77.2661 92.4318 75.4476 91.2167 74.6833C89.9758 73.9028 88.4592 74.5165 87.8299 76.0551C87.7462 76.2644 87.6731 76.4799 87.6109 76.7004C87.1493 78.3276 87.8399 80.1091 89.1525 80.6813C89.5118 80.8386 89.8953 80.8923 90.2738 80.8384C91.1977 80.7065 92.027 79.9426 92.3611 78.7857ZM9.46292 136.597L9.34403 136.614C7.96191 136.811 6.97018 138.36 7.12942 140.074C7.28866 141.787 8.53856 143.017 9.92067 142.819L10.0396 142.802C11.4219 142.605 12.4134 141.056 12.2542 139.342C12.0949 137.628 10.845 136.399 9.46292 136.597Z" fill="url(#paint1_linear_17486_2149)" fill-opacity="0.2"/>
<defs>
<linearGradient id="paint0_linear_17486_2149" x1="59.0749" y1="0.390903" x2="78.0253" y2="133.094" gradientUnits="userSpaceOnUse">
<stop stop-color="#34A853"/>
<stop offset="1" stop-color="#34A853" stop-opacity="0"/>
</linearGradient>
<linearGradient id="paint1_linear_17486_2149" x1="59.0749" y1="0.390903" x2="78.0253" y2="133.094" gradientUnits="userSpaceOnUse">
<stop stop-color="#34A853"/>
<stop offset="1" stop-color="#34A853" stop-opacity="0"/>
</linearGradient>
</defs>
</svg>
