<?xml version="1.0" encoding="UTF-8"?>
<svg version="1.1" xmlns="http://www.w3.org/2000/svg" width="37" height="56">
<path d="M0 0 C8.25 0.33 16.5 0.66 25 1 C25.33 2.65 25.66 4.3 26 6 C26.99 6.33 27.98 6.66 29 7 C29.33 6.34 29.66 5.68 30 5 C30.66 5.33 31.32 5.66 32 6 C32 10.62 32 15.24 32 20 C31.34 20 30.68 20 30 20 C30.20625 20.61875 30.4125 21.2375 30.625 21.875 C30.810625 22.926875 30.810625 22.926875 31 24 C30.34 24.66 29.68 25.32 29 26 C28.67 26.845625 28.34 27.69125 28 28.5625 C27 31 27 31 25 32 C25.01160156 32.96421875 25.02320312 33.9284375 25.03515625 34.921875 C25.04417969 36.18515625 25.05320312 37.4484375 25.0625 38.75 C25.07410156 40.00296875 25.08570312 41.2559375 25.09765625 42.546875 C25 46 25 46 24 50 C16.08 50 8.16 50 0 50 C-2.25 44.375 -2.25 44.375 -2.22705078 40.48510742 C-2.22689972 39.62459274 -2.22674866 38.76407806 -2.22659302 37.87748718 C-2.21627045 36.9627211 -2.20594788 36.04795502 -2.1953125 35.10546875 C-2.1924826 34.15811356 -2.18965271 33.21075836 -2.18673706 32.23469543 C-2.17557187 29.21883334 -2.15047389 26.20327184 -2.125 23.1875 C-2.11496547 21.13867617 -2.10584045 19.08984768 -2.09765625 17.04101562 C-2.07564449 12.02722852 -2.04113971 7.01366517 -2 2 C-1.34 1.67 -0.68 1.34 0 1 C0 0.67 0 0.34 0 0 Z M2 5 C1.97535295 10.67830078 1.95716538 16.35657069 1.94506836 22.03491211 C1.94002744 23.96818585 1.93319481 25.90145576 1.92456055 27.8347168 C1.91248435 30.60726872 1.90676943 33.37977041 1.90234375 36.15234375 C1.89718246 37.02213364 1.89202118 37.89192352 1.88670349 38.78807068 C1.88650815 40.85905814 1.93791832 42.92994324 2 45 C3.5220959 46.5220959 4.88210082 46.12959521 7 46.1328125 C7.804375 46.13410156 8.60875 46.13539062 9.4375 46.13671875 C10.7059375 46.13091797 10.7059375 46.13091797 12 46.125 C12.845625 46.12886719 13.69125 46.13273437 14.5625 46.13671875 C15.366875 46.13542969 16.17125 46.13414063 17 46.1328125 C18.11375 46.13112061 18.11375 46.13112061 19.25 46.12939453 C21.02825811 46.18942216 21.02825811 46.18942216 22 45 C22.07244053 42.98035801 22.08377188 40.95832876 22.0625 38.9375 C22.05347656 37.83277344 22.04445313 36.72804688 22.03515625 35.58984375 C22.02355469 34.73519531 22.01195313 33.88054688 22 33 C21.40703125 33.48082031 20.8140625 33.96164063 20.203125 34.45703125 C17.49661765 36.35254615 15.24784761 36.63092641 12 37 C11.67 37.99 11.34 38.98 11 40 C11.33 40.66 11.66 41.32 12 42 C10.68 41.67 9.36 41.34 8 41 C8.20625 40.05125 8.4125 39.1025 8.625 38.125 C8.810625 36.578125 8.810625 36.578125 9 35 C8.34 34.34 7.68 33.68 7 33 C5.99437875 29.97056599 5.70110267 27.1764174 6 24 C8.3835279 19.3230432 12.18341469 15.55337253 16 12 C16.495 11.443125 16.99 10.88625 17.5 10.3125 C19.2788197 8.75603277 20.69541066 8.39734299 23 8 C22.34 7.01 21.68 6.02 21 5 C18.97112689 4.58519893 18.97112689 4.58519893 16.6484375 4.70703125 C15.37226563 4.7215332 15.37226563 4.7215332 14.0703125 4.73632812 C12.73613281 4.7740332 12.73613281 4.7740332 11.375 4.8125 C10.02921875 4.83280273 10.02921875 4.83280273 8.65625 4.85351562 C6.43690211 4.88893075 4.21874812 4.93831539 2 5 Z M12 26 C13 28 13 28 13 28 Z M11 28 C10.67 29.32 10.34 30.64 10 32 C10.66 30.68 11.32 29.36 12 28 C11.67 28 11.34 28 11 28 Z M9 32 C10 34 10 34 10 34 Z " fill="#399D31" transform="translate(3,3)"/>
<path d="M0 0 C8.25 0.33 16.5 0.66 25 1 C25.33 2.65 25.66 4.3 26 6 C26.33 6.66 26.66 7.32 27 8 C24.625 8.125 24.625 8.125 22 8 C21.34 7.34 20.68 6.68 20 6 C14.39 6 8.78 6 3 6 C3 18.87 3 31.74 3 45 C8.94 45 14.88 45 21 45 C21.33 41.04 21.66 37.08 22 33 C23.485 32.505 23.485 32.505 25 32 C25.02707139 34.24993359 25.04642829 36.49996095 25.0625 38.75 C25.07410156 40.00296875 25.08570312 41.2559375 25.09765625 42.546875 C25 46 25 46 24 50 C16.08 50 8.16 50 0 50 C-2.25 44.375 -2.25 44.375 -2.22705078 40.48510742 C-2.22689972 39.62459274 -2.22674866 38.76407806 -2.22659302 37.87748718 C-2.21627045 36.9627211 -2.20594788 36.04795502 -2.1953125 35.10546875 C-2.1924826 34.15811356 -2.18965271 33.21075836 -2.18673706 32.23469543 C-2.17557187 29.21883334 -2.15047389 26.20327184 -2.125 23.1875 C-2.11496547 21.13867617 -2.10584045 19.08984768 -2.09765625 17.04101562 C-2.07564449 12.02722852 -2.04113971 7.01366517 -2 2 C-1.34 1.67 -0.68 1.34 0 1 C0 0.67 0 0.34 0 0 Z " fill="#0B2622" transform="translate(3,3)"/>
<path d="M0 0 C0.66 0 1.32 0 2 0 C2.02707139 2.24993359 2.04642829 4.49996095 2.0625 6.75 C2.07410156 8.00296875 2.08570312 9.2559375 2.09765625 10.546875 C2.01898651 13.32863714 1.72864059 15.3678174 1 18 C-2.29237055 17.89040282 -5.58356887 17.75971069 -8.875 17.625 C-9.81214844 17.5940625 -10.74929688 17.563125 -11.71484375 17.53125 C-12.61074219 17.49257813 -13.50664062 17.45390625 -14.4296875 17.4140625 C-15.25710449 17.3826416 -16.08452148 17.3512207 -16.93701172 17.31884766 C-19 17 -19 17 -21 15 C-17.70039859 13.3501993 -14.00872116 13.61741639 -10.375 13.4375 C-9.57320312 13.39431641 -8.77140625 13.35113281 -7.9453125 13.30664062 C-5.9637489 13.20048543 -3.98189729 13.09973145 -2 13 C-1.90912109 11.71802734 -1.90912109 11.71802734 -1.81640625 10.41015625 C-1.73261719 9.30542969 -1.64882813 8.20070313 -1.5625 7.0625 C-1.48128906 5.96035156 -1.40007813 4.85820313 -1.31640625 3.72265625 C-1 1 -1 1 0 0 Z " fill="#0E352D" transform="translate(26,35)"/>
<path d="M0 0 C8.25 0.33 16.5 0.66 25 1 C25.33 2.65 25.66 4.3 26 6 C26.33 6.66 26.66 7.32 27 8 C24.625 8.125 24.625 8.125 22 8 C21.34 7.34 20.68 6.68 20 6 C18.68252676 5.30251417 17.35085807 4.63040043 16 4 C16.33 3.67 16.66 3.34 17 3 C15.28490234 2.92652344 15.28490234 2.92652344 13.53515625 2.8515625 C12.04424527 2.77654811 10.55336108 2.70099972 9.0625 2.625 C8.30775391 2.5940625 7.55300781 2.563125 6.77539062 2.53125 C4.84492605 2.4273685 2.92057919 2.22104386 1 2 C0.67 1.34 0.34 0.68 0 0 Z " fill="#061713" transform="translate(3,3)"/>
<path d="M0 0 C1.216875 0.165 2.43375 0.33 3.6875 0.5 C6.81607836 0.89454541 9.84168804 1.09869725 13 1 C13.33 1.66 13.66 2.32 14 3 C10.25 4.125 10.25 4.125 8 3 C6.99983813 5.00032373 6.50603992 6.83125748 6 9 C4.68 8.67 3.36 8.34 2 8 C2 6.02 2 4.04 2 2 C1.34 2 0.68 2 0 2 C0 1.34 0 0.68 0 0 Z " fill="#2D7A24" transform="translate(9,36)"/>
<path d="M0 0 C5.94 0 11.88 0 18 0 C16.02 0.99 16.02 0.99 14 2 C13.67 2.33 13.34 2.66 13 3 C10.66702567 3.04092937 8.33294775 3.04241723 6 3 C6 2.34 6 1.68 6 1 C4.02 1 2.04 1 0 1 C0 0.67 0 0.34 0 0 Z " fill="#11413C" transform="translate(6,5)"/>
<path d="M0 0 C3 1 3 1 4.1875 3.0625 C4.455625 3.701875 4.72375 4.34125 5 5 C3.35 5 1.7 5 0 5 C0 3.35 0 1.7 0 0 Z " fill="#0B3326" transform="translate(25,6)"/>
<path d="M0 0 C2.31 0.33 4.62 0.66 7 1 C7 1.66 7 2.32 7 3 C5.02 3 3.04 3 1 3 C0.67 2.01 0.34 1.02 0 0 Z " fill="#0A231C" transform="translate(11,45)"/>
<path d="M0 0 C0.66 0.33 1.32 0.66 2 1 C0.68 1.99 -0.64 2.98 -2 4 C-1.34 2.68 -0.68 1.36 0 0 Z " fill="#000000" transform="translate(14,16)"/>
<path d="" fill="#000000" transform="translate(0,0)"/>
<path d="" fill="#000000" transform="translate(0,0)"/>
<path d="" fill="#000000" transform="translate(0,0)"/>
<path d="" fill="#000000" transform="translate(0,0)"/>
<path d="" fill="#000000" transform="translate(0,0)"/>
<path d="" fill="#000000" transform="translate(0,0)"/>
<path d="" fill="#000000" transform="translate(0,0)"/>
<path d="" fill="#000000" transform="translate(0,0)"/>
<path d="" fill="#000000" transform="translate(0,0)"/>
<path d="" fill="#000000" transform="translate(0,0)"/>
<path d="" fill="#000000" transform="translate(0,0)"/>
<path d="" fill="#000000" transform="translate(0,0)"/>
<path d="" fill="#000000" transform="translate(0,0)"/>
<path d="" fill="#000000" transform="translate(0,0)"/>
<path d="" fill="#000000" transform="translate(0,0)"/>
<path d="" fill="#000000" transform="translate(0,0)"/>
<path d="" fill="#000000" transform="translate(0,0)"/>
<path d="" fill="#000000" transform="translate(0,0)"/>
<path d="" fill="#000000" transform="translate(0,0)"/>
<path d="" fill="#000000" transform="translate(0,0)"/>
<path d="" fill="#000000" transform="translate(0,0)"/>
</svg>
